<svg width="172" height="172" viewBox="0 0 172 172" fill="none" xmlns="http://www.w3.org/2000/svg">
<path d="M164.916 34.0248L165.282 138.163C165.383 147.345 157.908 154.829 148.727 154.929L24.762 155.296C15.5808 155.397 8.09646 147.922 7.99601 138.741L7.62943 34.6022C7.60019 19.4653 24.8518 10.7341 37.0029 19.6821L82.4658 53.1133C84.8169 54.8394 88.062 54.8459 90.4002 53.1488L135.561 19.3835C147.55 10.3253 164.708 18.9073 164.916 34.0248Z" fill="#8964F8"/>
<path fill-rule="evenodd" clip-rule="evenodd" d="M168.916 33.9903L169.282 138.12C169.282 138.125 169.282 138.13 169.282 138.135C169.399 149.566 160.108 158.805 148.771 158.929L148.755 158.929L24.8058 159.296C24.7999 159.296 24.7939 159.296 24.788 159.296C13.358 159.411 4.12028 150.121 3.99625 138.784L3.99609 138.77L3.62944 34.6099C3.59388 16.1956 24.5733 5.56393 39.3726 16.4595C39.3728 16.4597 39.3731 16.4599 39.3734 16.4601C39.3738 16.4605 39.3743 16.4608 39.3748 16.4611L84.8329 49.8888C84.8338 49.8895 84.8346 49.8901 84.8354 49.8907C85.7837 50.5851 87.1095 50.5823 88.0329 49.9243L133.15 16.192C133.153 16.1898 133.156 16.1877 133.159 16.1856C147.838 5.10474 168.664 15.6742 168.915 33.9699L168.916 33.9903ZM135.561 19.3835L90.4002 53.1488C88.062 54.8458 84.8169 54.8393 82.4658 53.1132L37.0029 19.682C24.8518 10.734 7.6002 19.4652 7.62944 34.6022L7.99601 138.741C8.09646 147.922 15.5808 155.396 24.762 155.296L148.727 154.929C157.908 154.829 165.383 147.345 165.282 138.163L164.916 34.0248C164.708 18.9073 147.55 10.3252 135.561 19.3835Z" fill="white"/>
<path d="M142.317 144.09L30.7977 144.541C22.8633 144.505 16.5837 138.161 16.4606 130.424L16.2207 81.9656C16.2563 74.0312 22.6005 67.7517 30.3374 67.6286L141.857 67.1777C149.791 67.2133 156.071 73.5575 156.194 81.2944L156.453 129.931C156.576 137.668 150.232 143.947 142.317 144.09Z" fill="black"/>
<path d="M53.0725 87.6777C53.6069 87.6194 54.1412 87.5612 54.6756 87.5029C58.6331 87.4316 62.4092 89.0023 65.2333 91.7582C68.0573 94.5142 69.5535 98.3162 69.6248 102.274C69.7479 110.011 63.9574 116.41 56.2983 117.246C55.7639 117.304 55.2295 117.362 54.6952 117.42C50.7377 117.492 46.9616 115.921 44.1375 113.165C41.3135 110.409 39.8173 106.607 39.746 102.65C39.6229 94.9127 45.4134 88.5133 53.0725 87.6777ZM52.062 78.4155C39.9499 79.7369 30.4513 90.1456 30.3672 102.591C30.3802 115.928 41.3006 126.812 54.815 126.78C55.7251 126.861 56.6157 126.764 57.3282 126.686C69.4403 125.364 78.9389 114.956 79.023 102.51C79.01 89.1738 68.0896 78.2891 54.5751 78.3215C53.6651 78.2406 52.7745 78.3378 52.062 78.4155Z" fill="white"/>
<path d="M116.49 87.4297C117.024 87.3714 117.559 87.3131 118.093 87.2548C122.051 87.1835 125.827 88.7542 128.651 91.5102C131.475 94.2662 132.971 98.0683 133.042 102.026C133.165 109.763 127.375 116.162 119.716 116.998C119.181 117.056 118.647 117.114 118.113 117.173C114.155 117.244 110.379 115.673 107.555 112.917C104.731 110.161 103.235 106.359 103.164 102.402C103.04 94.6647 108.831 88.2653 116.49 87.4297ZM115.48 78.1676C103.367 79.489 93.8688 89.8976 93.7847 102.343C93.7977 115.68 104.718 126.564 118.233 126.532C119.143 126.613 120.033 126.516 120.746 126.438C132.858 125.117 142.356 114.708 142.441 102.262C142.427 88.9258 131.507 78.0411 117.993 78.0736C117.261 77.9732 116.37 78.0704 115.48 78.1676Z" fill="white"/>
<path d="M84.3308 129.69C81.7399 129.071 80.0009 127.999 80.0009 127.999C79.4082 127.523 79.3305 126.811 79.609 126.059C80.085 125.467 80.7975 125.389 81.5489 125.667C81.7464 125.826 87.5758 129.696 93.8586 124.505C94.3541 124.09 95.2641 124.171 95.6786 124.667C96.0932 125.162 96.0122 126.072 95.5167 126.487C91.3746 129.822 87.4365 130.072 84.8651 129.631C84.5283 129.848 84.3502 129.868 84.3308 129.69Z" fill="white"/>
</svg>
