<svg width="178" height="56" viewBox="0 0 178 56" fill="none" xmlns="http://www.w3.org/2000/svg">
    <path d="M76.6739 28.7183C76.6739 36.4913 70.593 42.2191 63.1304 42.2191C55.6678 42.2191 49.5869 36.4913 49.5869 28.7183C49.5869 20.8905 55.6678 15.2174 63.1304 15.2174C70.593 15.2174 76.6739 20.8905 76.6739 28.7183ZM70.7452 28.7183C70.7452 23.8609 67.2208 20.5374 63.1304 20.5374C59.04 20.5374 55.5156 23.8609 55.5156 28.7183C55.5156 33.527 59.04 36.8991 63.1304 36.8991C67.2208 36.8991 70.7452 33.5209 70.7452 28.7183Z" fill="#EA4335"/>
    <path d="M105.891 28.7183C105.891 36.4913 99.8104 42.2191 92.3478 42.2191C84.8852 42.2191 78.8043 36.4913 78.8043 28.7183C78.8043 20.8965 84.8852 15.2174 92.3478 15.2174C99.8104 15.2174 105.891 20.8905 105.891 28.7183ZM99.9626 28.7183C99.9626 23.8609 96.4382 20.5374 92.3478 20.5374C88.2574 20.5374 84.733 23.8609 84.733 28.7183C84.733 33.527 88.2574 36.8991 92.3478 36.8991C96.4382 36.8991 99.9626 33.5209 99.9626 28.7183Z" fill="#FBBC05"/>
    <path d="M133.891 16.0331V40.2713C133.891 50.2418 128.011 54.3139 121.06 54.3139C114.516 54.3139 110.578 49.9374 109.093 46.3583L114.255 44.2096C115.174 46.407 117.426 49 121.054 49C125.503 49 128.261 46.2548 128.261 41.087V39.1452H128.054C126.727 40.7826 124.17 42.2131 120.944 42.2131C114.194 42.2131 108.01 36.3331 108.01 28.767C108.01 21.1461 114.194 15.2174 120.944 15.2174C124.164 15.2174 126.721 16.6478 128.054 18.2365H128.261V16.0391H133.891V16.0331ZM128.681 28.767C128.681 24.0131 125.51 20.5374 121.474 20.5374C117.383 20.5374 113.956 24.0131 113.956 28.767C113.956 33.4722 117.383 36.8991 121.474 36.8991C125.51 36.8991 128.681 33.4722 128.681 28.767Z" fill="#4285F4"/>
    <path d="M143.174 1.82611V41.3913H137.391V1.82611H143.174Z" fill="#34A853"/>
    <path d="M165.708 33.1617L170.31 36.2295C168.824 38.4269 165.245 42.213 159.061 42.213C151.391 42.213 145.663 36.2843 145.663 28.7121C145.663 20.6834 151.44 15.2112 158.397 15.2112C165.403 15.2112 168.83 20.7869 169.95 23.7999L170.565 25.3339L152.517 32.8086C153.899 35.5173 156.048 36.8991 159.061 36.8991C162.08 36.8991 164.174 35.4139 165.708 33.1617ZM151.543 28.3043L163.608 23.2947C162.944 21.6086 160.948 20.4339 158.598 20.4339C155.585 20.4339 151.391 23.0939 151.543 28.3043V28.3043Z" fill="#EA4335"/>
    <path d="M27.6983 25.2062V19.4784H47C47.1887 20.4766 47.2861 21.6575 47.2861 22.9358C47.2861 27.2331 46.1113 32.5471 42.3252 36.3331C38.6426 40.1679 33.9374 42.2131 27.7043 42.2131C16.1513 42.2131 6.43652 32.8027 6.43652 21.2497C6.43652 9.69663 16.1513 0.286194 27.7043 0.286194C34.0957 0.286194 38.6487 2.79402 42.0696 6.06272L38.0278 10.1045C35.5748 7.80359 32.2513 6.01402 27.6983 6.01402C19.2617 6.01402 12.6635 12.8131 12.6635 21.2497C12.6635 29.6862 19.2617 36.4853 27.6983 36.4853C33.1704 36.4853 36.287 34.2879 38.2835 32.2914C39.9026 30.6723 40.9678 28.3592 41.3878 25.2001L27.6983 25.2062V25.2062Z" fill="#4285F4"/>
</svg>
