<svg width="56" height="56" viewBox="0 0 60 60" fill="none" xmlns="http://www.w3.org/2000/svg"><path d="M60 0H0v60h60V0Z" fill="#000"></path><path d="M27.648 48.706H5.178v3.765h22.47v-3.765ZM4.941 15.765l1.765-1.647c.47.588.941.941 1.53.941.705 0 1.058-.47 1.058-1.412V7.412H12v6.235c0 1.177-.353 2.118-.94 2.706-.59.588-1.53.941-2.707.941-1.765.118-2.706-.588-3.412-1.529ZM12.586 7.53h7.883v2.235h-5.177v1.529h4.706v2.118h-4.706v1.53h5.294v2.352h-7.882l-.118-9.765ZM24 9.882h-2.941V7.53h8.588v2.353h-2.941v7.412H24V9.882ZM5.177 19.53h5.06c1.175 0 2.117.352 2.705.823.353.353.588.941.588 1.647 0 1.177-.588 1.765-1.53 2.235 1.177.353 1.883 1.06 1.883 2.353 0 1.647-1.412 2.706-3.647 2.706H5.177V19.53Zm5.647 3.058c0-.588-.47-.823-1.176-.823H7.883v1.764H9.53c.824-.117 1.294-.352 1.294-.94Zm-.94 2.824H7.764v1.765h2.118c.824 0 1.294-.353 1.294-.942 0-.588-.47-.823-1.294-.823ZM14.352 19.53h4.588c1.53 0 2.471.352 3.177 1.058.588.589.823 1.294.823 2.236 0 1.53-.823 2.47-2 3.058l2.353 3.412h-3.058l-2-2.94h-1.177v2.94h-2.706V19.53Zm4.47 4.705c.942 0 1.413-.47 1.413-1.176 0-.824-.589-1.177-1.412-1.177h-1.765v2.353h1.765Z" fill="#fff"></path><path d="M26.119 19.53h2.588l4.117 9.882h-2.94l-.707-1.765h-3.764l-.706 1.765h-2.824l4.236-9.883Zm2.352 5.882-1.058-2.706-1.06 2.706h2.118ZM33.177 19.53h2.706v9.764h-2.706V19.53ZM36.588 19.53h2.471l4 5.176v-5.177h2.706v9.765h-2.353L39.294 24v5.412h-2.706v-9.883ZM46 27.883l1.529-1.765c.941.824 2 1.177 3.176 1.177.706 0 1.177-.236 1.177-.706s-.353-.588-1.647-.941c-2.118-.47-3.647-1.06-3.647-3.06 0-1.764 1.411-3.176 3.764-3.176 1.648 0 2.942.47 4 1.294l-1.411 1.883c-.942-.588-1.883-.941-2.706-.941-.706 0-.941.235-.941.588 0 .47.353.588 1.647.941 2.235.47 3.647 1.177 3.647 3.059 0 2-1.53 3.176-4 3.176-1.765.118-3.412-.47-4.589-1.53Z" fill="#fff"></path></svg>