<svg width="48" height="48" viewBox="0 0 48 48" fill="none" xmlns="http://www.w3.org/2000/svg">
    <path d="M3 4C3 3.44772 3.44772 3 4 3H7V7H3V4Z" fill="#19191C" stroke="#19191C" stroke-width="2"/>
    <path d="M3 44C3 44.5523 3.44772 45 4 45H7V41H3V44Z" fill="#19191C" stroke="#19191C" stroke-width="2"/>
    <rect x="3" y="11" width="4" height="26" fill="#19191C" stroke="#19191C" stroke-width="2"/>
    <rect x="11" y="3" width="26" height="4" fill="#19191C" stroke="#19191C" stroke-width="2"/>
    <rect x="11" y="41" width="26" height="4" fill="#19191C" stroke="#19191C" stroke-width="2"/>
    <path d="M41 3H44C44.5523 3 45 3.44772 45 4V7H41V3Z" fill="#19191C" stroke="#19191C" stroke-width="2"/>
    <path d="M41 45H44C44.5523 45 45 44.5523 45 44V41H41V45Z" fill="#19191C" stroke="#19191C" stroke-width="2"/>
    <path d="M41 11H45V37H41V24V11Z" fill="#19191C" stroke="#19191C" stroke-width="2"/>
    <mask id="path-9-inside-1_5425_141983" fill="white">
        <path fill-rule="evenodd" clip-rule="evenodd" d="M16 10C12.6863 10 10 12.6863 10 16V32C10 35.3137 12.6863 38 16 38H32C35.3137 38 38 35.3137 38 32V16C38 12.6863 35.3137 10 32 10H16ZM20.126 23C20.4878 21.5944 21.5944 20.4878 23 20.126L23 14H25L25 20.126C26.4056 20.4878 27.5122 21.5944 27.874 23H34V25H27.874C27.5122 26.4056 26.4056 27.5122 25 27.874L25 34H23L23 27.874C21.5944 27.5122 20.4878 26.4056 20.126 25H14V23H20.126Z"/>
    </mask>
    <path fill-rule="evenodd" clip-rule="evenodd" d="M16 10C12.6863 10 10 12.6863 10 16V32C10 35.3137 12.6863 38 16 38H32C35.3137 38 38 35.3137 38 32V16C38 12.6863 35.3137 10 32 10H16ZM20.126 23C20.4878 21.5944 21.5944 20.4878 23 20.126L23 14H25L25 20.126C26.4056 20.4878 27.5122 21.5944 27.874 23H34V25H27.874C27.5122 26.4056 26.4056 27.5122 25 27.874L25 34H23L23 27.874C21.5944 27.5122 20.4878 26.4056 20.126 25H14V23H20.126Z" fill="#19191C"/>
    <path d="M23 20.126L23.2493 21.0945L24 20.9012V20.126H23ZM20.126 23V24H20.9012L21.0945 23.2493L20.126 23ZM23 14V13H22V14L23 14ZM25 14H26V13H25V14ZM25 20.126H24V20.9012L24.7507 21.0945L25 20.126ZM27.874 23L26.9055 23.2493L27.0988 24H27.874V23ZM34 23H35V22H34V23ZM34 25V26H35V25H34ZM27.874 25V24H27.0988L26.9055 24.7507L27.874 25ZM25 27.874L24.7507 26.9055L24 27.0988V27.874H25ZM25 34V35H26V34H25ZM23 34H22V35H23V34ZM23 27.874H24V27.0988L23.2493 26.9055L23 27.874ZM20.126 25L21.0945 24.7507L20.9012 24H20.126V25ZM14 25H13V26H14V25ZM14 23V22H13V23H14ZM11 16C11 13.2386 13.2386 11 16 11V9C12.134 9 9 12.134 9 16H11ZM11 32V16H9V32H11ZM16 37C13.2386 37 11 34.7614 11 32H9C9 35.866 12.134 39 16 39V37ZM32 37H16V39H32V37ZM37 32C37 34.7614 34.7614 37 32 37V39C35.866 39 39 35.866 39 32H37ZM37 16V32H39V16H37ZM32 11C34.7614 11 37 13.2386 37 16H39C39 12.134 35.866 9 32 9V11ZM16 11H32V9H16V11ZM22.7507 19.1576C20.9923 19.6102 19.6102 20.9923 19.1576 22.7507L21.0945 23.2493C21.3654 22.1965 22.1965 21.3654 23.2493 21.0945L22.7507 19.1576ZM22 14L22 20.126H24L24 14L22 14ZM25 13H23V15H25V13ZM26 20.126L26 14L24 14L24 20.126H26ZM28.8424 22.7507C28.3898 20.9923 27.0077 19.6102 25.2493 19.1576L24.7507 21.0945C25.8035 21.3654 26.6346 22.1965 26.9055 23.2493L28.8424 22.7507ZM27.874 24H34V22H27.874V24ZM33 23V25H35V23H33ZM34 24H27.874V26H34V24ZM25.2493 28.8424C27.0077 28.3898 28.3898 27.0077 28.8424 25.2493L26.9055 24.7507C26.6346 25.8035 25.8035 26.6346 24.7507 26.9055L25.2493 28.8424ZM26 34L26 27.874H24L24 34H26ZM23 35H25V33H23V35ZM22 27.874L22 34H24L24 27.874H22ZM19.1576 25.2493C19.6102 27.0077 20.9923 28.3898 22.7507 28.8424L23.2493 26.9055C22.1965 26.6346 21.3654 25.8035 21.0945 24.7507L19.1576 25.2493ZM20.126 24H14V26H20.126V24ZM15 25V23H13V25H15ZM14 24H20.126V22H14V24Z" fill="#19191C" mask="url(#path-9-inside-1_5425_141983)"/>
    <circle cx="24" cy="24" r="2" fill="#19191C"/>
</svg>
