<svg width="48" height="48" viewBox="0 0 48 48" fill="none" xmlns="http://www.w3.org/2000/svg">
    <path fill-rule="evenodd" clip-rule="evenodd" d="M23 1.17896C23 0.561676 22.4424 0.0892897 21.8616 0.298244C18.8013 1.39918 16.1439 4.82081 14.3613 9.61963C14.125 10.2557 14.6062 10.9183 15.2848 10.9183H22C22.5523 10.9183 23 10.4706 23 9.91829V1.17896ZM23 13.9183C23 13.366 22.5523 12.9183 22 12.9183H14.1063C13.6504 12.9183 13.2509 13.2262 13.1459 13.6699C12.411 16.7779 12 20.2521 12 23.9183C12 27.5845 12.411 31.0587 13.1459 34.1667C13.2509 34.6104 13.6504 34.9183 14.1063 34.9183H22C22.5523 34.9183 23 34.4706 23 33.9183L23 13.9183ZM26 34.9183C25.4477 34.9183 25 34.4706 25 33.9183L25 13.9183C25 13.366 25.4477 12.9183 26 12.9183H33.8937C34.3496 12.9183 34.7491 13.2262 34.8541 13.6699C35.589 16.7779 36 20.2521 36 23.9183C36 27.5845 35.589 31.0587 34.8541 34.1667C34.7491 34.6104 34.3496 34.9183 33.8937 34.9183H26ZM23 37.9183C23 37.366 22.5523 36.9183 22 36.9183H15.2848C14.6062 36.9183 14.125 37.5809 14.3613 38.217C16.1439 43.0158 18.8013 46.4374 21.8616 47.5383C22.4424 47.7473 23 47.2749 23 46.6576V37.9183ZM26.1384 47.5383C25.5576 47.7473 25 47.2749 25 46.6576V37.9183C25 37.366 25.4477 36.9183 26 36.9183H32.7152C33.3938 36.9183 33.875 37.5809 33.6387 38.217C31.8561 43.0158 29.1987 46.4374 26.1384 47.5383ZM26 10.9183C25.4477 10.9183 25 10.4706 25 9.91829V1.17896C25 0.561674 25.5576 0.0892887 26.1384 0.298242C29.1987 1.39918 31.8561 4.8208 33.6387 9.61962C33.875 10.2557 33.3938 10.9183 32.7152 10.9183H26ZM34.2741 41.7833C33.9068 42.5179 33.5073 43.2271 33.0768 43.9C32.5157 44.7769 33.3708 46.0446 34.3106 45.5969C37.7934 43.9374 40.8133 41.4634 43.124 38.4213C43.6031 37.7905 43.1338 36.9183 42.3418 36.9183H36.9263C36.4857 36.9183 36.0984 37.2072 35.9619 37.6261C35.4754 39.1188 34.9099 40.5118 34.2741 41.7833ZM48 23.9183C48 27.6662 47.1409 31.2134 45.6089 34.3738C45.4458 34.7104 45.1014 34.9183 44.7274 34.9183H38.0041C37.3558 34.9183 36.879 34.3108 37.0132 33.6764C37.6528 30.6528 38 27.3545 38 23.9183C38 20.4821 37.6528 17.1838 37.0132 14.1602C36.879 13.5258 37.3558 12.9183 38.0041 12.9183H44.7274C45.1014 12.9183 45.4458 13.1262 45.6089 13.4628C47.1409 16.6232 48 20.1704 48 23.9183ZM13.7259 41.7833C13.0901 40.5118 12.5246 39.1188 12.0381 37.6261C11.9016 37.2072 11.5143 36.9183 11.0737 36.9183H5.65822C4.86618 36.9183 4.39695 37.7905 4.87601 38.4213C7.18666 41.4634 10.2066 43.9374 13.6894 45.5968C14.6292 46.0446 15.4843 44.7769 14.9232 43.9C14.4927 43.2271 14.0932 42.5179 13.7259 41.7833ZM10 23.9183C10 27.3545 10.3472 30.6528 10.9868 33.6764C11.121 34.3108 10.6442 34.9183 9.99586 34.9183H3.27259C2.89856 34.9183 2.55422 34.7104 2.39107 34.3738C0.859081 31.2134 0 27.6662 0 23.9183C0 20.1704 0.859081 16.6232 2.39107 13.4628C2.55422 13.1262 2.89856 12.9183 3.27259 12.9183H9.99586C10.6442 12.9183 11.121 13.5258 10.9868 14.1602C10.3472 17.1838 10 20.4821 10 23.9183ZM35.9619 10.2105C36.0984 10.6294 36.4857 10.9183 36.9263 10.9183H42.3418C43.1338 10.9183 43.6031 10.0461 43.124 9.41532C40.8133 6.37316 37.7934 3.89916 34.3106 2.23974C33.3708 1.79194 32.5157 3.05971 33.0768 3.93663C33.5073 4.60952 33.9068 5.31872 34.2741 6.0533C34.9099 7.32479 35.4754 8.71783 35.9619 10.2105ZM11.0737 10.9183C11.5143 10.9183 11.9016 10.6294 12.0381 10.2105C12.5246 8.71783 13.0901 7.32479 13.7259 6.0533C14.0932 5.31872 14.4927 4.60953 14.9232 3.93663C15.4843 3.05972 14.6292 1.79194 13.6894 2.23974C10.2066 3.89916 7.18666 6.37316 4.87601 9.41532C4.39695 10.0461 4.86618 10.9183 5.65822 10.9183H11.0737Z" fill="#19191C"/>
</svg>