<svg width="48" height="48" viewBox="0 0 48 48" fill="none" xmlns="http://www.w3.org/2000/svg">
    <path d="M1 45V20.8284C1 20.298 1.21071 19.7893 1.58578 19.4142L19.4142 1.58578C19.7893 1.21071 20.298 1 20.8284 1H45C46.1046 1 47 1.89543 47 3V26.6867C47 27.2082 46.7964 27.709 46.4325 28.0825L28.5888 46.3957C28.2123 46.7821 27.6958 47 27.1563 47H3C1.89543 47 1 46.1046 1 45Z" stroke="#19191C" stroke-width="2"/>
    <path fill-rule="evenodd" clip-rule="evenodd" d="M1 20.8284V45C1 46.1046 1.89543 47 3 47H27.1563C27.6958 47 28.2123 46.7821 28.5888 46.3957L46.4325 28.0825C46.7964 27.709 47 27.2082 47 26.6867V3C47 1.89543 46.1046 1 45 1H20.8284C20.298 1 19.7893 1.21071 19.4142 1.58578L1.58578 19.4142C1.21071 19.7893 1 20.298 1 20.8284ZM6.1 24H21.1716H21.8568H23.6586H23.7586C23.8477 24 23.8923 24.1077 23.8293 24.1707L23.7586 24.2414L22.4845 25.5155L22 26L15.0707 32.9293C15.0317 32.9683 15.0317 33.0317 15.0707 33.0707L22 40L22.4725 40.4725L23.7627 41.7627L23.8293 41.8293C23.8923 41.8923 23.8517 42 23.7627 42H23.6586H21.8755H21.1716H6.09283C6.0376 42 6 41.9552 6 41.9V24.1C6 24.0448 6.04477 24 6.1 24ZM23.7627 44H6.09283C4.74184 44 4 42.8584 4 41.9V24.1C4 22.9402 4.94021 22 6.1 22H23.7586C25.6295 22 26.5664 24.262 25.2435 25.5849L17.8284 33L25.2435 40.4151C26.4414 41.613 25.8085 44 23.7627 44Z" fill="#19191C"/>
</svg>
