<svg width="48" height="48" viewBox="0 0 48 48" fill="none" xmlns="http://www.w3.org/2000/svg">
    <path fill-rule="evenodd" clip-rule="evenodd" d="M31 34C40.3888 34 48 26.3888 48 17C48 7.61116 40.3888 0 31 0C21.6112 0 14 7.61116 14 17C14 17.3357 14.0097 17.6691 14.0289 18H26C28.2091 18 30 19.7909 30 22V33.9711C30.3309 33.9903 30.6643 34 31 34ZM28 33.7361V22C28 20.8954 27.1046 20 26 20H14.2639C15.5074 26.9842 21.0158 32.4926 28 33.7361Z" fill="#19191C"/>
    <path fill-rule="evenodd" clip-rule="evenodd" d="M12.2355 20H2C0.895431 20 0 20.8954 0 22V46C0 47.1046 0.895431 48 2 48H26C27.1046 48 28 47.1046 28 46V35.7645C19.9092 34.4812 13.5188 28.0908 12.2355 20ZM14.2639 20C15.5074 26.9842 21.0158 32.4926 28 33.7361V22C28 20.8954 27.1046 20 26 20H14.2639Z" fill="#19191C"/>
</svg>
