<svg width="174" height="55" viewBox="0 0 174 55" fill="none" xmlns="http://www.w3.org/2000/svg">
    <path d="M22.0271 19.6086V25.4821H35.9599C35.5334 28.777 34.4434 31.1885 32.7848 32.8837C30.747 34.937 27.5718 37.1814 22.0271 37.1814C13.4493 37.1814 6.74355 30.2096 6.74355 21.5665C6.74355 12.9233 13.4493 5.95152 22.0271 5.95152C26.6477 5.95152 30.0361 7.78998 32.5241 10.1537L36.6234 6.02315C33.1639 2.63275 28.5196 0.0541382 22.0271 0.0541382C10.2742 0.0541382 0.393188 9.70006 0.393188 21.5426C0.393188 33.3851 10.2742 43.031 22.0271 43.031C28.3774 43.031 33.1639 40.9299 36.9077 37.0143C40.7464 33.1463 41.9549 27.6787 41.9549 23.2855C41.9549 21.9246 41.8601 20.6592 41.6468 19.6086H22.0271Z" fill="#4285F4"/>
    <path d="M59.3714 14.8342C51.7652 14.8342 45.557 20.6599 45.557 28.7061C45.557 36.6807 51.7652 42.5781 59.3714 42.5781C66.9776 42.5781 73.1858 36.7046 73.1858 28.7061C73.1858 20.6599 66.9776 14.8342 59.3714 14.8342ZM59.3714 37.1105C55.201 37.1105 51.5993 33.6485 51.5993 28.7061C51.5993 23.7161 55.201 20.3018 59.3714 20.3018C63.5418 20.3018 67.1435 23.7161 67.1435 28.7061C67.1435 33.6485 63.5418 37.1105 59.3714 37.1105Z" fill="#EA4335"/>
    <path d="M127.094 17.9381H126.881C125.53 16.3145 122.923 14.8342 119.63 14.8342C112.758 14.8342 106.763 20.8748 106.763 28.7061C106.763 36.4897 112.758 42.5781 119.63 42.5781C122.923 42.5781 125.53 41.0978 126.881 39.4265H127.094V41.3605C127.094 46.6609 124.274 49.5022 119.748 49.5022C116.052 49.5022 113.753 46.8281 112.806 44.5598L107.545 46.7564C109.062 50.4333 113.066 54.9459 119.748 54.9459C126.833 54.9459 132.828 50.7437 132.828 40.5009V15.5504H127.094V17.9381ZM120.151 37.1105C115.981 37.1105 112.806 33.5291 112.806 28.7061C112.806 23.8116 115.981 20.3018 120.151 20.3018C124.274 20.3018 127.497 23.8832 127.497 28.7539C127.52 33.6007 124.274 37.1105 120.151 37.1105Z" fill="#4285F4"/>
    <path d="M90.176 14.8342C82.5698 14.8342 76.3616 20.6599 76.3616 28.7061C76.3616 36.6807 82.5698 42.5781 90.176 42.5781C97.7822 42.5781 103.99 36.7046 103.99 28.7061C103.99 20.6599 97.7822 14.8342 90.176 14.8342ZM90.176 37.1105C86.0056 37.1105 82.4039 33.6485 82.4039 28.7061C82.4039 23.7161 86.0056 20.3018 90.176 20.3018C94.3464 20.3018 97.948 23.7161 97.948 28.7061C97.948 33.6485 94.3464 37.1105 90.176 37.1105Z" fill="#FBBC05"/>
    <path d="M137.566 0.627136H143.513V42.5774H137.566V0.627136Z" fill="#34A853"/>
    <path d="M161.878 37.1105C158.797 37.1105 156.617 35.7018 155.196 32.9083L173.607 25.2441L172.991 23.6683C171.854 20.5644 168.347 14.8342 161.214 14.8342C154.129 14.8342 148.229 20.445 148.229 28.7061C148.229 36.4897 154.058 42.5781 161.878 42.5781C168.181 42.5781 171.83 38.6863 173.346 36.442L168.655 33.2903C167.091 35.5824 164.958 37.1105 161.878 37.1105ZM161.451 20.0391C163.892 20.0391 165.977 21.3046 166.664 23.0953L154.224 28.2764C154.224 22.4506 158.323 20.0391 161.451 20.0391Z" fill="#EA4335"/>
</svg>
