<svg width="152" height="152" viewBox="0 0 152 152" fill="none" xmlns="http://www.w3.org/2000/svg">
    <path d="M68.6071 70.4157L33.824 40.9742C32.4033 39.7852 30.7382 38.9238 28.947 38.4509C27.1557 37.978 25.2824 37.9054 23.4599 38.2382C21.6375 38.5709 19.9107 39.3009 18.4021 40.3763C16.8936 41.4516 15.6404 42.846 14.7315 44.4603C13.8226 46.0746 13.2803 47.8692 13.1431 49.7167C13.006 51.5642 13.2774 53.4192 13.938 55.15C14.5985 56.8808 15.6322 58.4449 16.9654 59.7312C18.2986 61.0175 19.8987 61.9945 21.652 62.5927H21.7782L22.1063 62.6936L65.9826 76.0601C66.301 76.1751 66.6367 76.2349 66.9752 76.2368C67.6575 76.2332 68.32 76.0074 68.8623 75.5935C69.4047 75.1797 69.7974 74.6003 69.9809 73.9432C70.1644 73.2861 70.1288 72.5871 69.8794 71.9521C69.63 71.3171 69.1804 70.7807 68.5987 70.4242L68.6071 70.4157Z" fill="url(#paint0_linear_382_22894)"/>
    <path d="M75.5807 21.8119C75.5907 20.156 75.1517 18.5284 74.3104 17.1022C73.4691 15.676 72.257 14.5045 70.8029 13.7123C69.3488 12.9201 67.7072 12.5369 66.0527 12.6033C64.3981 12.6698 62.7926 13.1835 61.4067 14.0898L18.9267 39.8806C17.4823 40.822 16.2462 42.0495 15.2946 43.4872C14.343 44.9249 13.6962 46.5424 13.394 48.2399C13.0919 49.9373 13.1408 51.6787 13.5377 53.3565C13.9347 55.0343 14.6713 56.6129 15.7021 57.995C16.7329 59.377 18.036 60.5332 19.5309 61.392C21.0259 62.2509 22.681 62.7943 24.3942 62.9887C26.1073 63.183 27.8421 63.0242 29.4914 62.5221C31.1408 62.0199 32.6698 61.1851 33.984 60.0691L72.0646 29.0377L72.3674 28.7853C73.3739 27.9232 74.1822 26.8537 74.7369 25.6501C75.2915 24.4464 75.5794 23.1371 75.5807 21.8119Z" fill="url(#paint1_linear_382_22894)"/>
    <path d="M137.358 77.3893L72.9057 15.3181C72.033 14.4422 70.9924 13.7518 69.8462 13.2882C68.7 12.8245 67.472 12.5973 66.2358 12.62C64.9997 12.6428 63.7808 12.9151 62.6525 13.4206C61.5242 13.9261 60.5096 14.6544 59.6698 15.5617C58.8299 16.4691 58.1821 17.5368 57.7651 18.7007C57.3481 19.8647 57.1706 21.1009 57.2433 22.3351C57.3159 23.5694 57.6372 24.7762 58.1879 25.8832C58.7386 26.9902 59.5072 27.9745 60.4477 28.7771L60.5655 28.878L129.038 86.5667C129.942 87.3245 131.043 87.8086 132.212 87.9619C133.381 88.1153 134.57 87.9315 135.638 87.4322C136.707 86.933 137.61 86.139 138.242 85.1437C138.875 84.1484 139.21 82.9932 139.208 81.814C139.208 80.9906 139.044 80.1755 138.727 79.416C138.409 78.6564 137.944 77.9675 137.358 77.3893Z" fill="url(#paint2_linear_382_22894)"/>
    <path d="M139.217 81.8391C139.225 80.695 138.916 79.5711 138.323 78.5924C137.731 77.6136 136.879 76.8184 135.861 76.2953C134.844 75.7722 133.701 75.5417 132.56 75.6293C131.42 75.717 130.326 76.1195 129.4 76.7919L51.4135 114.898C49.8585 115.679 48.4819 116.774 47.3703 118.113C46.2587 119.452 45.4361 121.006 44.9542 122.678C44.4723 124.351 44.3416 126.104 44.5701 127.83C44.7987 129.555 45.3817 131.214 46.2825 132.703C47.1832 134.192 48.3823 135.479 49.8042 136.482C51.2262 137.485 52.8403 138.184 54.5451 138.533C56.25 138.883 58.0086 138.876 59.7106 138.513C61.4126 138.15 63.0211 137.438 64.4351 136.424L136.55 86.9282C137.373 86.3591 138.046 85.5987 138.51 84.7122C138.975 83.8258 139.217 82.8398 139.217 81.8391Z" fill="url(#paint3_linear_382_22894)"/>
    <path d="M50.4713 50.471H100.943V100.942H50.4713V50.471Z" fill="black"/>
    <path d="M55.9641 91.4794H74.8908V94.6339H55.9641V91.4794Z" fill="white"/>
    <path d="M55.1736 63.4846L56.5784 62.1555C56.7121 62.3664 56.8938 62.5428 57.1087 62.67C57.3237 62.7972 57.5657 62.8716 57.8149 62.8873C58.3533 62.8873 58.7066 62.5088 58.7066 61.777V56.7971H60.8768V61.7938C60.9093 62.1961 60.8572 62.6008 60.7239 62.9818C60.5906 63.3628 60.3791 63.7117 60.1029 64.0061C59.8178 64.2846 59.4793 64.5027 59.1078 64.6472C58.7363 64.7918 58.3395 64.8598 57.9411 64.8473C57.4027 64.869 56.8675 64.7557 56.3842 64.5176C55.9008 64.2796 55.4846 63.9245 55.1736 63.4846Z" fill="white"/>
    <path d="M61.8526 56.7971H68.1868V58.6393H63.9808V59.8422H67.7578V61.5246H64.0145V62.778H68.2204V64.6286H61.8274L61.8526 56.7971Z" fill="white"/>
    <path d="M71.2738 58.7066H68.9185V56.7971H75.8246V58.7066H73.4609V64.6706H71.2738V58.7066Z" fill="white"/>
    <path d="M56.0482 67.7829H59.7663C60.1523 67.7511 60.5407 67.7965 60.909 67.9164C61.2772 68.0363 61.618 68.2282 61.9113 68.4811C62.0785 68.6487 62.2102 68.8483 62.2983 69.068C62.3865 69.2877 62.4294 69.523 62.4244 69.7597C62.4307 70.1435 62.3164 70.5197 62.0976 70.8351C61.8787 71.1505 61.5664 71.3893 61.2047 71.5178C61.6522 71.5998 62.0558 71.8389 62.3426 72.1921C62.6295 72.5453 62.7808 72.9893 62.7693 73.4441C62.7693 74.8657 61.6674 75.7069 59.7831 75.7069H56.0482V67.7829ZM60.2542 70.2139C60.2542 69.7765 59.9009 69.541 59.2616 69.541H58.1764V70.9205H59.2279C59.884 70.9205 60.271 70.6934 60.271 70.2392L60.2542 70.2139ZM59.4971 72.4515H58.1764V73.9067H59.5391C60.2121 73.9067 60.5822 73.646 60.5822 73.1833C60.5654 72.7375 60.2457 72.4515 59.5139 72.4515H59.4971Z" fill="white"/>
    <path d="M63.4675 67.7829H66.9584C67.4205 67.7453 67.8855 67.8003 68.3261 67.9448C68.7667 68.0892 69.1739 68.3202 69.5241 68.6241C69.7602 68.8654 69.9441 69.1527 70.0642 69.4682C70.1844 69.7838 70.2381 70.1207 70.2222 70.4579C70.2374 70.9815 70.0893 71.4968 69.7984 71.9324C69.5074 72.368 69.0882 72.7023 68.5988 72.8889L70.483 75.7069H67.9595L66.3696 73.3179H65.6378V75.7069H63.4507L63.4675 67.7829ZM66.8323 71.5683C67.5641 71.5683 68.0099 71.2065 68.0099 70.6261C68.0099 69.9952 67.5473 69.6756 66.8238 69.6756H65.6546V71.5851L66.8323 71.5683Z" fill="white"/>
    <path d="M73.2589 67.7242H75.3619L78.7267 75.665H76.3798L75.8162 74.2434H72.7626L72.1991 75.7071H69.9194L73.2589 67.7242ZM75.1769 72.5442L74.2936 70.315L73.402 72.5442H75.1769Z" fill="white"/>
    <path d="M79.0715 67.7578H81.2586V75.6397H79.0715V67.7578Z" fill="white"/>
    <path d="M82.0662 67.7578H84.1187L86.9535 71.9638V67.7578H89.1153V75.6397H87.2058L84.2364 71.316V75.6397H82.0662V67.7578Z" fill="white"/>
    <path d="M89.4772 74.4705L90.6885 73.0152C91.3979 73.6084 92.2876 73.9435 93.212 73.9658C93.8093 73.9658 94.1205 73.7555 94.1205 73.419C94.1205 73.0741 93.8682 72.9059 92.783 72.6535C91.1007 72.2666 89.8136 71.8123 89.8136 70.1888C89.8136 68.7252 90.9745 67.6653 92.8672 67.6653C94.0371 67.6214 95.1847 67.994 96.1057 68.7168L95.0542 70.2141C94.4179 69.7333 93.6476 69.4628 92.8503 69.4402C92.3204 69.4402 92.0596 69.6505 92.0596 69.9449C92.0596 70.3066 92.3288 70.4664 93.4308 70.7104C95.2393 71.1057 96.3581 71.6946 96.3581 73.1666C96.3581 74.7733 95.0879 75.6902 93.1784 75.6902C91.8374 75.7473 90.5215 75.3137 89.4772 74.4705Z" fill="white"/>
    <defs>
        <linearGradient id="paint0_linear_382_22894" x1="27.4562" y1="51.447" x2="69.625" y2="71.9551" gradientUnits="userSpaceOnUse">
            <stop offset="0.21" stop-color="#FE2857"/>
            <stop offset="1" stop-color="#293896"/>
        </linearGradient>
        <linearGradient id="paint1_linear_382_22894" x1="14.6198" y1="58.7652" x2="69.7765" y2="17.8583" gradientUnits="userSpaceOnUse">
            <stop stop-color="#FE2857"/>
            <stop offset="0.01" stop-color="#FE2857"/>
            <stop offset="0.86" stop-color="#FF318C"/>
        </linearGradient>
        <linearGradient id="paint2_linear_382_22894" x1="62.3909" y1="18.1529" x2="134.817" y2="83.9169" gradientUnits="userSpaceOnUse">
            <stop offset="0.02" stop-color="#FF318C"/>
            <stop offset="0.21" stop-color="#FE2857"/>
            <stop offset="0.86" stop-color="#FDB60D"/>
        </linearGradient>
        <linearGradient id="paint3_linear_382_22894" x1="130.771" y1="75.5386" x2="46.3243" y2="133.665" gradientUnits="userSpaceOnUse">
            <stop offset="0.01" stop-color="#FDB60D"/>
            <stop offset="0.86" stop-color="#FCF84A"/>
        </linearGradient>
    </defs>
</svg>
