<svg width="172" height="172" viewBox="0 0 172 172" fill="none" xmlns="http://www.w3.org/2000/svg">
<path d="M7.03807 36.5466L7.0381 36.5539L7.41507 138.234C7.41507 138.235 7.41507 138.235 7.41507 138.236C7.43707 148.403 15.7554 156.427 25.8601 156.407L25.8621 156.407L147.018 156.033C157.186 156.012 165.211 147.694 165.191 137.588L165.19 137.585L164.814 35.9054C164.784 19.557 145.978 10.1661 132.858 19.9403L132.857 19.9409L88.625 52.932L88.5974 52.9526L88.5704 52.9742C87.1671 54.0982 84.9953 54.1311 83.1737 52.9299L38.8782 20.2497L38.8741 20.2466C25.6065 10.5112 7.03772 20.0634 7.03807 36.5466Z" fill="#8964F8" stroke="white" stroke-width="4"/>
<path d="M127.001 144.919L34.5229 145.304C26.9006 145.364 20.6141 139.08 20.5542 131.457L20.4626 83.9945C20.4027 76.3722 26.6868 70.0856 34.3091 70.0258L126.787 69.6409C134.41 69.581 140.696 75.8652 140.756 83.4875L140.848 130.95C140.735 138.546 134.623 144.859 127.001 144.919Z" fill="black"/>
<path d="M29.87 96.4268C30.0429 96.4535 30.0429 96.4535 30.2158 96.4803L126.844 96.7374C128.081 96.7518 129.133 95.6752 129.147 94.4381C129.161 93.201 128.085 92.1493 126.848 92.1349L30.2199 91.8777C28.9828 91.8633 27.9309 92.9398 27.9165 94.1769C27.9289 95.2411 28.8325 96.2662 29.87 96.4268Z" fill="white"/>
<path d="M30.4828 111.925C30.6557 111.952 30.6557 111.952 30.8286 111.978L127.456 112.236C128.694 112.25 129.745 111.173 129.76 109.936C129.774 108.699 128.698 107.647 127.461 107.633L30.8326 107.376C29.5955 107.361 28.5437 108.438 28.5293 109.675C28.6878 110.939 29.4453 111.764 30.4828 111.925Z" fill="white"/>
<path d="M121.032 111.416C122.069 111.576 123.041 111.018 123.547 110.034C124.64 107.548 125.068 104.781 125.15 101.961C125.233 99.1412 124.743 96.5867 123.734 93.952C123.203 92.8075 122.073 92.1015 120.755 92.6058C119.611 93.1369 119.078 94.2937 119.409 95.5843C120.152 97.6468 120.523 99.8288 120.548 101.957C120.546 104.258 120.052 106.307 119.358 108.501C118.825 109.658 119.502 111.002 120.659 111.535C120.686 111.362 120.859 111.389 121.032 111.416Z" fill="white"/>
<path d="M83.6924 111.304C84.0383 111.358 84.4108 111.238 84.9563 111.146C86.1008 110.615 86.6606 109.285 86.3025 108.167C85.3864 106.078 85.0426 103.723 85.0446 101.422C85.0199 99.2933 85.4871 97.4181 86.1539 95.3967C86.5141 94.2131 86.0098 92.8958 84.8262 92.5356C83.6426 92.1754 82.3252 92.6797 81.965 93.8633C81.0717 96.2037 80.6705 98.7973 80.6417 101.272C80.5594 104.092 81.1687 107.019 82.1774 109.653C82.1898 110.718 82.8279 111.17 83.6924 111.304Z" fill="white"/>
<path d="M71.7324 111.933C72.7699 112.093 73.7415 111.535 74.2211 110.724C75.5405 107.919 76.195 104.833 76.1578 101.641C76.2134 98.9934 75.7234 96.4389 74.8608 94.0039C74.5026 92.8862 73.1997 92.1534 71.8823 92.6577C70.7646 93.0159 70.0318 94.3189 70.5362 95.6363C71.306 97.5259 71.5037 99.681 71.5552 101.637C71.5264 104.111 70.9522 106.678 69.9127 108.818C69.3796 109.975 69.884 111.293 71.0409 111.826C71.2138 111.852 71.5595 111.906 71.7324 111.933Z" fill="white"/>
<path d="M35.2306 112.126C35.5764 112.18 36.1219 112.087 36.4945 111.968C37.6389 111.437 38.1987 110.107 37.6676 108.962C36.6322 106.501 35.9694 103.919 36.0249 101.272C35.9734 99.3168 36.4138 97.6145 36.8811 95.7393C37.2413 94.5557 36.564 93.2116 35.3805 92.8514C34.1969 92.4912 32.8527 93.1684 32.4925 94.352C31.7989 96.5463 31.4243 98.967 31.4223 101.268C31.4327 104.634 32.1614 107.933 33.4624 110.967C33.9009 111.566 34.539 112.019 35.2306 112.126Z" fill="white"/>
<path d="M84.9869 131.789C82.2382 131.549 80.5366 130.543 80.3552 130.515C79.6578 130.221 79.4353 129.258 79.729 128.561C80.0226 127.863 80.9857 127.641 81.6831 127.935C82.0178 128.172 88.4201 131.206 93.965 125.378C94.4119 124.89 95.3469 124.849 95.8349 125.296C96.3229 125.743 96.364 126.678 95.917 127.166C92.16 131.042 88.1546 131.722 85.3778 131.664C85.3497 131.845 85.1683 131.817 84.9869 131.789Z" fill="white"/>
</svg>
