<svg width="168" height="158" viewBox="0 0 168 158" fill="none" xmlns="http://www.w3.org/2000/svg">
    <path d="M0.441203 22.6974C0.269104 15.8289 8.26462 11.9531 13.5501 16.3429L83.769 74.6632L150.979 12.8994C156.038 8.25041 164.218 11.721 164.39 18.5895L167.555 144.936C167.666 149.353 164.175 153.023 159.758 153.134L11.8048 156.841C7.38794 156.951 3.71762 153.461 3.60695 149.044L0.441203 22.6974Z" fill="white"/>
    <path d="M13.1246 92.4063C13.0693 90.1979 14.8147 88.3627 17.0231 88.3074L151.114 84.9476C153.323 84.8923 155.158 86.6377 155.213 88.8461L156.459 138.546C156.514 140.754 154.768 142.589 152.56 142.645L18.4688 146.005C16.2604 146.06 14.4252 144.314 14.3699 142.106L13.1246 92.4063Z" fill="#27282C"/>
    <path d="M77.0433 115.365C77.7996 125.915 69.8424 135.095 59.2532 135.854C48.664 136.613 39.4788 128.662 38.7225 118.112C37.9662 107.562 45.9233 98.3814 56.5125 97.6223C67.1018 96.8633 76.287 104.815 77.0433 115.365Z" stroke="white" stroke-width="8"/>
    <path d="M129.775 114.029C130.531 124.579 122.574 133.76 111.985 134.519C101.395 135.278 92.2102 127.326 91.4539 116.776C90.6975 106.226 98.6547 97.0457 109.244 96.2866C119.833 95.5276 129.018 103.479 129.775 114.029Z" stroke="white" stroke-width="8"/>
</svg>
