<svg width="173" height="160" viewBox="0 0 173 160" fill="none" xmlns="http://www.w3.org/2000/svg">
    <path d="M1.16581 20.9112C1.05322 14.0543 9.05551 10.2434 14.3081 14.6524L86.8524 75.5461L157.358 12.3036C162.463 7.72446 170.586 11.2706 170.699 18.1275L172.842 148.644C172.915 153.062 169.392 156.702 164.974 156.774L11.4391 159.295C7.02146 159.368 3.38142 155.846 3.30888 151.428L1.16581 20.9112Z" fill="white"/>
    <path d="M13.6554 93.0385C13.6191 90.8297 15.3803 89.0097 17.5892 88.9734L156.519 86.6922C158.728 86.6559 160.548 88.4171 160.584 90.626L161.426 141.879C161.462 144.088 159.701 145.908 157.492 145.944L18.5621 148.226C16.3533 148.262 14.5332 146.501 14.497 144.292L13.6554 93.0385Z" fill="#27282C"/>
    <path d="M134.866 116.024C135.407 127.155 126.803 136.631 115.632 137.173C104.461 137.715 94.9797 129.118 94.4393 117.987C93.8988 106.856 102.503 97.381 113.674 96.8386C124.844 96.2962 134.326 104.894 134.866 116.024Z" stroke="white" stroke-width="8"/>
    <path d="M76.0406 117.638C76.2921 122.816 72.2881 127.232 67.0806 127.485C61.8731 127.738 57.4602 123.731 57.2087 118.552C56.9572 113.373 60.9612 108.957 66.1687 108.705C71.3762 108.452 75.7891 112.459 76.0406 117.638Z" stroke="white" stroke-width="8"/>
</svg>
