<svg width="172" height="172" viewBox="0 0 172 172" fill="none" xmlns="http://www.w3.org/2000/svg">
<path d="M24.7603 156.383H24.7685L147.327 156.336C147.328 156.336 147.33 156.336 147.331 156.336C157.485 156.371 165.767 147.986 165.805 137.871L165.805 137.86L165.614 35.1332C165.728 18.5391 146.654 9.21778 133.18 18.5892L133.152 18.6083L133.125 18.6284L88.5016 51.9379C86.8092 53.1156 84.7367 53.1364 83.0489 51.9556L38.2625 18.8721L38.2593 18.8697C24.9214 9.05812 6.02964 18.6555 6.10422 35.1829C6.10423 35.1839 6.10423 35.1849 6.10424 35.1858L6.29512 137.91C6.26031 148.063 14.6459 156.345 24.7603 156.383Z" fill="#8964F8" stroke="white" stroke-width="4"/>
<path d="M141.144 145.925L30.9752 145.973C23.1812 145.993 16.8983 139.701 16.8789 131.907L16.8159 83.9057C16.7965 76.1118 23.0885 69.8287 30.8824 69.8094L141.051 69.7607C148.845 69.7414 155.128 76.0332 155.147 83.8272L155.21 131.828C155.229 139.622 148.938 145.905 141.144 145.925Z" fill="black"/>
<path d="M74.7634 132.621C78.5844 134.38 82.6202 135.261 86.8708 135.267C90.9445 135.265 95.2332 134.387 98.8525 132.594C100.843 131.617 101.848 128.826 100.694 126.828C99.5402 124.83 96.9264 123.832 94.9286 124.986C94.383 125.317 93.6607 125.64 92.9459 125.787C93.3071 125.625 93.6682 125.463 94.0218 125.479C92.2235 126.11 90.2559 126.557 88.3036 126.65C88.6572 126.665 89.0185 126.503 89.5489 126.526C87.2354 126.781 84.9371 126.682 82.6541 126.23C83.0076 126.245 83.3536 126.437 83.7071 126.453C82.1236 126.207 80.3787 125.601 78.8103 125.002C79.1563 125.194 79.5023 125.386 79.8558 125.401L79.6791 125.394C78.6411 124.818 77.588 124.595 76.3352 124.896C75.2593 125.204 74.1682 125.865 73.5998 126.727C73.0239 127.764 72.7938 128.994 73.1018 130.07C73.2406 130.962 73.7178 132.222 74.7634 132.621Z" fill="white"/>
<path d="M100.328 131.238C99.9519 131.753 99.5832 132.092 99.0377 132.422C95.4107 134.392 91.1221 135.27 87.0483 135.272C85.9876 135.227 85.1037 135.189 84.043 135.143C85.3565 133.428 87.3771 131.744 90.5973 130.997C94.7166 129.934 98.0604 130.432 100.328 131.238Z" fill="#989898"/>
<path d="M57.3622 88.304C65.3177 88.6458 71.4162 95.1069 71.428 103.078C71.4321 111.225 64.7715 117.846 56.6239 117.851C56.4472 117.843 56.0935 117.828 55.9167 117.82C47.9612 117.478 41.8627 111.017 41.851 103.047C41.8468 94.8991 48.5075 88.2778 56.655 88.2736C56.8318 88.2812 57.1854 88.2964 57.3622 88.304ZM57.7572 79.1109C57.4036 79.0957 57.0499 79.0805 56.6963 79.0653C43.4142 79.026 32.6744 89.9 32.8194 103.013C32.7953 115.941 42.9698 126.474 55.6987 127.021C56.0523 127.036 56.4058 127.051 56.7594 127.067C70.0414 127.106 80.7814 116.232 80.6364 103.119C80.6605 90.1906 70.4861 79.6578 57.7572 79.1109Z" fill="white"/>
<path d="M120.068 88.1614C128.024 88.5032 134.122 94.9643 134.134 102.935C134.138 111.083 127.478 117.704 119.33 117.708C119.153 117.701 118.8 117.685 118.623 117.678C110.667 117.336 104.569 110.875 104.557 102.904C104.553 94.7566 111.214 88.1352 119.361 88.131C119.715 88.1462 119.891 88.1538 120.068 88.1614ZM120.463 78.9683C120.11 78.9531 119.756 78.9379 119.402 78.9228C106.12 78.8834 95.3804 89.7575 95.5255 102.87C95.5014 115.799 105.676 126.331 118.405 126.878C118.758 126.894 119.112 126.909 119.466 126.924C132.748 126.963 143.487 116.089 143.342 102.976C143.366 90.048 133.192 79.5152 120.463 78.9683Z" fill="white"/>
</svg>
