<svg width="167" height="154" viewBox="0 0 167 154" fill="none" xmlns="http://www.w3.org/2000/svg">
    <path d="M8.28968 17.7383C8.68408 10.8919 16.9461 7.68267 21.8585 12.4678L83.8743 72.8761L152.417 19.9887C157.846 15.7993 165.685 19.9361 165.291 26.7825L158.434 145.802C158.18 150.213 154.398 153.583 149.987 153.329L8.9601 145.205C4.54913 144.951 1.17933 141.169 1.43343 136.758L8.28968 17.7383Z" fill="white"/>
    <path d="M14.9551 84.3288C15.0822 82.1233 16.9731 80.4384 19.1786 80.5655L147.259 87.9437C149.465 88.0707 151.15 89.9616 151.023 92.1671L148.322 139.052C148.195 141.258 146.304 142.943 144.098 142.816L16.0176 135.438C13.8121 135.311 12.1272 133.42 12.2543 131.214L14.9551 84.3288Z" fill="#27282C"/>
    <path d="M74.4182 111.529C73.8632 121.163 65.5859 128.535 55.915 127.978C46.2441 127.421 38.8681 119.147 39.423 109.514C39.978 99.8799 48.2553 92.508 57.9262 93.0651C67.5971 93.6222 74.9731 101.896 74.4182 111.529Z" stroke="white" stroke-width="8"/>
    <path d="M98.4194 114.97L135.089 117.267" stroke="white" stroke-width="8"/>
</svg>
