<svg width="199" height="187" viewBox="0 0 199 187" fill="none" xmlns="http://www.w3.org/2000/svg">
    <path d="M20.2288 17.364C21.1826 10.5729 29.6797 8.05111 34.1837 13.2225L99.6541 88.3931L183.298 34.1651C189.052 30.4345 196.526 35.1993 195.572 41.9904L176.456 178.1C175.842 182.475 171.797 185.524 167.421 184.91L7.92224 162.508C3.5469 161.894 0.498138 157.849 1.11264 153.474L20.2288 17.364Z" fill="white"/>
    <path d="M21.3308 94.3906C21.6381 92.2029 23.6606 90.6785 25.8483 90.9858L169.89 111.216C172.078 111.523 173.603 113.546 173.295 115.733L165.801 169.094C165.494 171.282 163.471 172.806 161.283 172.499L17.2413 152.269C15.0536 151.961 13.5292 149.939 13.8365 147.751L21.3308 94.3906Z" fill="#27282C"/>
    <path d="M87.3001 140.461C88.8957 129.809 80.2416 119.684 67.9707 117.846C55.6998 116.008 44.4587 123.153 42.8631 133.805" stroke="white" stroke-width="8"/>
    <path d="M141.126 148.524C142.721 137.872 134.067 127.747 121.796 125.909C109.525 124.071 98.2844 131.216 96.6887 141.867" stroke="white" stroke-width="8"/>
</svg>
