<svg width="172" height="172" viewBox="0 0 172 172" fill="none" xmlns="http://www.w3.org/2000/svg">
<path d="M132.697 16.8407L132.696 16.8416L87.5147 58.4875C86.4959 59.3479 85.1036 59.3686 84.1892 58.6225L84.1749 58.6108L84.1603 58.5994L37.2417 21.74L37.2306 21.7313L37.2195 21.7228C24.4747 11.9974 6.05351 20.9613 6.09038 37.0796L6.09041 37.0862L6.64105 136.255C6.64105 136.257 6.64105 136.26 6.64105 136.262C6.63671 146.47 14.6744 155.125 24.7138 155.026C24.7169 155.026 24.72 155.026 24.7231 155.026L147.435 154.832L147.444 154.832C157.29 154.77 165.322 146.269 165.288 135.877L164.969 31.0492L164.968 31.036C164.808 14.4017 145.014 5.50335 132.697 16.8407Z" fill="#8964F8" stroke="white" stroke-width="4"/>
<path d="M122.732 144.598L32.3033 144.712C24.5487 144.753 18.3317 138.506 18.2902 130.752L18.1268 82.9425C18.0853 75.1879 24.3322 68.9707 32.0868 68.9292L122.515 68.8152C130.27 68.7737 136.487 75.0206 136.529 82.7751L136.692 130.585C136.733 138.339 130.487 144.556 122.732 144.598Z" fill="black"/>
<path d="M71.5851 126.703C73.1269 127.997 75.1123 128.834 77.2944 128.907C79.4395 128.807 81.6088 127.98 83.2476 126.364C83.9992 125.66 82.8026 124.293 82.088 125.168C79.5622 127.697 75.6171 127.823 72.9899 125.679C72.5706 125.408 72.1884 125.31 71.7077 125.594C71.3997 125.84 71.1658 126.432 71.5851 126.703Z" fill="white"/>
<path d="M48.9392 87.6951C49.9746 87.4726 51.0472 87.4227 52.1198 87.3728C60.2565 87.4297 66.893 93.9475 66.836 102.084C66.8647 108.939 62.0355 115.032 55.305 116.478C54.2696 116.701 53.197 116.751 52.2971 116.764C44.1603 116.707 37.5238 110.189 37.5807 102.052C37.3795 95.2345 42.2087 89.1415 48.9392 87.6951ZM47.0107 78.7212C36.1384 81.0575 28.106 90.7277 28.1989 102.082C28.1449 115.273 38.9261 125.956 52.1175 126.01C53.9174 125.984 55.5077 125.823 57.0609 125.489C67.9332 123.153 75.9657 113.483 75.8728 102.128C75.9268 88.937 65.1456 78.2545 51.9542 78.2005C50.3268 78.1891 48.5639 78.3874 47.0107 78.7212Z" fill="white"/>
<path d="M99.6579 87.6287C100.693 87.4062 101.766 87.3563 102.839 87.3064C110.975 87.3633 117.612 93.8811 117.555 102.018C117.583 108.872 112.754 114.966 106.024 116.412C104.988 116.634 103.916 116.684 102.843 116.734C94.7065 116.677 88.07 110.159 88.1269 102.023C88.0982 95.1681 92.9275 89.0751 99.6579 87.6287ZM97.7295 78.6548C86.8572 80.9911 78.8247 90.6613 78.9176 102.016C78.8636 115.207 89.6448 125.89 102.836 125.944C104.636 125.918 106.226 125.757 107.78 125.423C118.652 123.087 126.684 113.416 126.592 102.062C126.646 88.8706 115.864 78.1881 102.673 78.1341C101.046 78.1227 99.2827 78.321 97.7295 78.6548Z" fill="white"/>
</svg>
