<svg width="172" height="172" viewBox="0 0 172 172" fill="none" xmlns="http://www.w3.org/2000/svg">
<path d="M164.793 35.942L164.793 35.9285C164.662 19.5861 145.921 9.88204 132.811 20.0674L88.5233 52.9747C86.9383 54.1028 84.7267 54.0874 83.1374 52.9066L38.8806 19.9715L38.8747 19.9672L38.8689 19.9629C25.5583 10.2073 6.94978 19.5444 6.88771 35.9906H6.88768L6.8877 36.0006L7.01372 137.773L7.01377 137.781C7.0664 147.836 15.2146 156.098 25.3166 156.048C25.3185 156.048 25.3205 156.048 25.3224 156.048L146.641 156.015L146.651 156.015C156.706 155.962 164.969 147.814 164.919 137.712C164.919 137.71 164.919 137.708 164.919 137.706L164.793 35.942Z" fill="#8964F8" stroke="white" stroke-width="4"/>
<path d="M140.244 143.226L31.238 143.219C23.4995 143.315 17.3959 137.077 17.3007 129.339L17.3185 81.7902C17.2233 74.0517 23.4604 67.9482 31.1989 67.853L140.205 67.86C147.944 67.7647 154.047 74.002 154.142 81.7405L154.125 129.289C154.22 137.028 148.001 143.305 140.244 143.226Z" fill="black"/>
<path d="M82.2908 122.625C79.7614 122.006 78.2234 120.757 78.2234 120.757C77.6466 120.288 77.5566 119.417 78.0253 118.84C78.494 118.263 79.3654 118.173 79.9421 118.642C80.1344 118.798 85.6552 122.806 92.0364 118.097C92.6974 117.676 93.4124 117.778 93.8328 118.439C94.2533 119.1 94.1512 119.815 93.4903 120.236C89.4044 123.299 85.3427 123.191 82.8314 122.746C82.6571 122.764 82.465 122.607 82.2908 122.625Z" fill="white"/>
<path d="M37.7473 109.087C37.6991 110.325 36.7436 111.304 35.5059 111.256C34.2682 111.208 33.2891 110.252 33.3373 109.015C33.3855 107.777 34.3408 106.798 35.5785 106.846C36.642 106.912 37.7955 107.85 37.7473 109.087Z" fill="#FE2857"/>
<path d="M71.737 109.099C71.6888 110.337 70.7335 111.316 69.4959 111.268C68.2582 111.219 67.2788 110.264 67.327 109.026C67.3752 107.789 68.3307 106.809 69.5684 106.858C70.806 106.906 71.7852 107.861 71.737 109.099Z" fill="#FE2857"/>
<path d="M71.8596 88.1321C71.8113 89.3698 70.8559 90.3491 69.6182 90.3009C68.3805 90.2527 67.4014 89.2972 67.4496 88.0595C67.4978 86.8219 68.4533 85.8427 69.6909 85.8909C70.7544 85.9571 71.7335 86.9125 71.8596 88.1321Z" fill="#FE2857"/>
<path d="M64.736 116.339C64.6878 117.577 63.7324 118.556 62.4947 118.508C61.257 118.46 60.2778 117.504 60.326 116.267C60.3743 115.029 61.3295 114.05 62.5672 114.098C63.8049 114.146 64.7843 115.102 64.736 116.339Z" fill="#FE2857"/>
<path d="M44.8493 116.458C44.8011 117.696 43.8456 118.675 42.608 118.627C41.3703 118.579 40.3911 117.623 40.4393 116.386C40.4875 115.148 41.443 114.169 42.6807 114.217C43.7441 114.283 44.7233 115.239 44.8493 116.458Z" fill="#FE2857"/>
<path d="M58.4147 123.333C58.3665 124.571 57.4111 125.55 56.1734 125.502C54.9357 125.454 53.9566 124.498 54.0048 123.261C54.053 122.023 55.0082 121.044 56.2459 121.092C57.4836 121.14 58.463 122.096 58.4147 123.333Z" fill="#FE2857"/>
<path d="M51.3733 123.355C51.3251 124.592 50.3697 125.572 49.132 125.524C47.8943 125.475 46.915 124.52 46.9633 123.282C47.0115 122.045 47.9669 121.065 49.2046 121.114C50.4423 121.162 51.4216 122.117 51.3733 123.355Z" fill="#FE2857"/>
<path d="M58.4787 94.974C58.4305 96.2117 57.475 97.1909 56.2374 97.1427C54.9997 97.0945 54.0205 96.139 54.0687 94.9013C54.1169 93.6637 55.0724 92.6845 56.3101 92.7327C57.3735 92.7989 58.3527 93.7544 58.4787 94.974Z" fill="#FE2857"/>
<path d="M51.4367 94.9975C51.3885 96.2352 50.433 97.2143 49.1954 97.1661C47.9577 97.1179 46.9785 96.1626 47.0267 94.9249C47.075 93.6872 48.0304 92.7079 49.2681 92.7561C50.3315 92.8223 51.3107 93.7778 51.4367 94.9975Z" fill="#FE2857"/>
<path d="M64.6423 88.1752C64.5941 89.4129 63.6386 90.3921 62.4009 90.3439C61.1633 90.2956 60.1841 89.3402 60.2323 88.1025C60.2805 86.8648 61.236 85.8857 62.4736 85.9339C63.7113 85.9821 64.6905 86.9375 64.6423 88.1752Z" fill="#FE2857"/>
<path d="M78.2497 102.263C78.2015 103.501 77.246 104.48 76.0084 104.432C74.7707 104.384 73.7915 103.428 73.8397 102.191C73.8879 100.953 74.8432 99.9736 76.0809 100.022C77.3185 100.07 78.2979 101.025 78.2497 102.263Z" fill="#FE2857"/>
<path d="M78.2092 95.0482C78.161 96.2858 77.2057 97.2651 75.968 97.2169C74.7304 97.1687 73.751 96.2132 73.7992 94.9756C73.8474 93.7379 74.8029 92.7587 76.0405 92.8069C77.2782 92.8551 78.2574 93.8105 78.2092 95.0482Z" fill="#FE2857"/>
<path d="M44.7556 88.2923C44.7073 89.53 43.752 90.5093 42.5143 90.461C41.2766 90.4128 40.2974 89.4574 40.3456 88.2197C40.3938 86.982 41.3493 86.0028 42.5869 86.0511C43.8066 85.925 44.8038 87.0546 44.7556 88.2923Z" fill="#FE2857"/>
<path d="M37.6965 88.1419C37.6483 89.3796 36.6929 90.3589 35.4552 90.3106C34.2176 90.2624 33.2383 89.307 33.2865 88.0693C33.3347 86.8316 34.2902 85.8525 35.5278 85.9007C36.7655 85.9489 37.7447 86.9042 37.6965 88.1419Z" fill="#FE2857"/>
<path d="M31.2419 102.365C31.1937 103.602 30.2383 104.582 29.0006 104.533C27.763 104.485 26.7837 103.53 26.8319 102.292C26.8801 101.054 27.8356 100.075 29.0733 100.123C30.2929 99.9973 31.2901 101.127 31.2419 102.365Z" fill="#FE2857"/>
<path d="M31.2014 95.1518C31.1532 96.3895 30.1977 97.3686 28.96 97.3204C27.7223 97.2722 26.7432 96.3167 26.7914 95.0791C26.8396 93.8414 27.7951 92.8622 29.0327 92.9104C30.2524 92.7844 31.2496 93.9141 31.2014 95.1518Z" fill="#FE2857"/>
<path d="M104.313 109.079C104.265 110.317 103.31 111.296 102.072 111.248C100.834 111.2 99.855 110.244 99.9032 109.007C99.9514 107.769 100.907 106.79 102.145 106.838C103.382 106.886 104.361 107.842 104.313 109.079Z" fill="#FE2857"/>
<path d="M138.475 109.074C138.427 110.311 137.471 111.291 136.233 111.242C134.996 111.194 134.017 110.239 134.065 109.001C134.113 107.763 135.068 106.784 136.306 106.832C137.37 106.899 138.349 107.854 138.475 109.074Z" fill="#FE2857"/>
<path d="M138.424 88.1186C138.375 89.3563 137.42 90.3354 136.182 90.2872C134.945 90.239 133.965 89.2836 134.014 88.046C134.062 86.8083 135.017 85.829 136.255 85.8772C137.318 85.9435 138.472 86.8809 138.424 88.1186Z" fill="#FE2857"/>
<path d="M131.3 116.331C131.252 117.569 130.297 118.548 129.059 118.5C127.821 118.452 126.842 117.496 126.89 116.259C126.939 115.021 127.894 114.042 129.132 114.09C130.37 114.138 131.349 115.094 131.3 116.331Z" fill="#FE2857"/>
<path d="M111.414 116.447C111.366 117.684 110.41 118.664 109.172 118.615C107.935 118.567 106.956 117.612 107.004 116.374C107.052 115.136 108.007 114.157 109.245 114.205C110.308 114.272 111.462 115.209 111.414 116.447Z" fill="#FE2857"/>
<path d="M124.978 123.322C124.93 124.559 123.975 125.539 122.737 125.49C121.499 125.442 120.52 124.487 120.568 123.249C120.616 122.011 121.572 121.032 122.81 121.08C124.047 121.129 125.026 122.084 124.978 123.322Z" fill="#FE2857"/>
<path d="M117.937 123.345C117.889 124.583 116.934 125.562 115.696 125.514C114.458 125.466 113.479 124.51 113.527 123.273C113.575 122.035 114.531 121.056 115.769 121.104C117.006 121.152 117.985 122.107 117.937 123.345Z" fill="#FE2857"/>
<path d="M125.043 94.9642C124.994 96.2019 124.039 97.1811 122.801 97.1329C121.564 97.0847 120.584 96.1292 120.633 94.8916C120.681 93.6539 121.636 92.6747 122.874 92.723C124.112 92.7712 125.091 93.7265 125.043 94.9642Z" fill="#FE2857"/>
<path d="M118.001 94.9877C117.953 96.2254 116.997 97.2046 115.76 97.1564C114.522 97.1081 113.543 96.1527 113.591 94.915C113.639 93.6773 114.595 92.6982 115.832 92.7464C117.07 92.7946 118.049 93.75 118.001 94.9877Z" fill="#FE2857"/>
<path d="M131.382 88.1458C131.334 89.3835 130.378 90.3628 129.141 90.3146C127.903 90.2663 126.924 89.3109 126.972 88.0732C127.02 86.8355 127.976 85.8564 129.213 85.9046C130.277 85.9708 131.256 86.9261 131.382 88.1458Z" fill="#FE2857"/>
<path d="M144.814 102.251C144.766 103.489 143.81 104.468 142.573 104.42C141.335 104.372 140.356 103.416 140.404 102.179C140.452 100.941 141.408 99.9618 142.646 100.01C143.883 100.058 144.862 101.014 144.814 102.251Z" fill="#FE2857"/>
<path d="M144.947 95.019C144.899 96.2566 143.943 97.2358 142.706 97.1876C141.468 97.1394 140.489 96.184 140.537 94.9464C140.585 93.7087 141.541 92.7294 142.778 92.7776C143.842 92.8438 144.821 93.7993 144.947 95.019Z" fill="#FE2857"/>
<path d="M111.32 88.2787C111.272 89.5164 110.316 90.4956 109.079 90.4474C107.841 90.3992 106.862 89.4438 106.91 88.2061C106.958 86.9685 107.914 85.9892 109.151 86.0374C110.371 85.9114 111.35 86.8668 111.32 88.2787Z" fill="#FE2857"/>
<path d="M104.26 88.1303C104.212 89.368 103.256 90.3471 102.019 90.2989C100.781 90.2507 99.8018 89.2954 99.85 88.0577C99.8982 86.82 100.854 85.8407 102.091 85.8889C103.329 85.9372 104.308 86.8926 104.26 88.1303Z" fill="#FE2857"/>
<path d="M97.8059 102.357C97.7576 103.595 96.8022 104.574 95.5645 104.526C94.3268 104.477 93.3477 103.522 93.3959 102.284C93.4441 101.046 94.3995 100.067 95.6372 100.116C96.8569 99.9895 97.8541 101.119 97.8059 102.357Z" fill="#FE2857"/>
<path d="M97.9211 94.9467C97.8729 96.1844 96.9174 97.1636 95.6797 97.1153C94.4421 97.0671 93.4629 96.1118 93.5111 94.8741C93.5593 93.6364 94.5148 92.6571 95.7525 92.7054C96.8159 92.7716 97.7951 93.727 97.9211 94.9467Z" fill="#FE2857"/>
</svg>
