<svg width="60" height="60" viewBox="0 0 61 60" fill="none" xmlns="http://www.w3.org/2000/svg">
    <g clip-path="url(#clip0_612_2854)">
        <path d="M60.5 0H0.5V60H60.5V0Z" fill="black"/>
        <path d="M28.1478 48.7061H5.67737V52.4708H28.1478V48.7061Z" fill="white"/>
        <path d="M5.44141 15.765L7.20611 14.118C7.6767 14.7062 8.14729 15.0592 8.73552 15.0592C9.44141 15.0592 9.79435 14.5886 9.79435 13.6474V7.41211H12.5002V13.6474C12.5002 14.8239 12.1473 15.765 11.5591 16.3533C10.9708 16.9415 10.0296 17.2945 8.85317 17.2945C7.08847 17.4121 6.14729 16.7062 5.44141 15.765Z" fill="white"/>
        <path d="M13.0863 7.5293H20.9687V9.76459H15.7922V11.294H20.4981V13.4116H15.7922V14.9411H21.0863V17.294H13.204L13.0863 7.5293Z" fill="white"/>
        <path d="M24.4999 9.88224H21.5587V7.5293H30.147V9.88224H27.2058V17.294H24.4999V9.88224Z" fill="white"/>
        <path d="M5.67737 19.5297H10.7362C11.9127 19.5297 12.8538 19.8826 13.4421 20.3532C13.795 20.7061 14.0303 21.2944 14.0303 22.0002C14.0303 23.1767 13.4421 23.765 12.5009 24.2355C13.6774 24.5885 14.3833 25.2944 14.3833 26.5885C14.3833 28.2355 12.9715 29.2944 10.7362 29.2944H5.67737V19.5297ZM11.3244 22.5885C11.3244 22.0002 10.8538 21.765 10.148 21.765H8.38325V23.5297H10.0303C10.8538 23.412 11.3244 23.1767 11.3244 22.5885ZM10.3833 25.412H8.2656V27.1767H10.3833C11.2068 27.1767 11.6774 26.8238 11.6774 26.2355C11.6774 25.6473 11.2068 25.412 10.3833 25.412Z" fill="white"/>
        <path d="M14.8522 19.5297H19.4405C20.9699 19.5297 21.9111 19.8826 22.617 20.5885C23.2052 21.1767 23.4405 21.8826 23.4405 22.8238C23.4405 24.3532 22.617 25.2944 21.4405 25.8826L23.7935 29.2944H20.7346L18.7346 26.3532H17.5581V29.2944H14.8522V19.5297ZM19.3228 24.2355C20.264 24.2355 20.7346 23.765 20.7346 23.0591C20.7346 22.2355 20.1464 21.8826 19.3228 21.8826H17.5581V24.2355H19.3228Z" fill="white"/>
        <path d="M26.6185 19.5297H29.2067L33.3244 29.412H30.3832L29.6773 27.6473H25.9126L25.2067 29.412H22.3832L26.6185 19.5297ZM28.9714 25.412L27.9126 22.7061L26.8538 25.412H28.9714Z" fill="white"/>
        <path d="M33.6771 19.5297H36.383V29.2944H33.6771V19.5297Z" fill="white"/>
        <path d="M37.0885 19.5297H39.5591L43.5591 24.7061V19.5297H46.265V29.2944H43.912L39.7944 24.0003V29.412H37.0885V19.5297Z" fill="white"/>
        <path d="M46.4994 27.8831L48.0288 26.1184C48.97 26.9419 50.0288 27.2948 51.2053 27.2948C51.9112 27.2948 52.3817 27.0595 52.3817 26.5889C52.3817 26.1184 52.0288 26.0007 50.7347 25.6478C48.617 25.1772 47.0876 24.5889 47.0876 22.5889C47.0876 20.8242 48.4994 19.4125 50.8523 19.4125C52.4994 19.4125 53.7935 19.8831 54.8523 20.7066L53.4406 22.5889C52.4994 22.0007 51.5582 21.6478 50.7347 21.6478C50.0288 21.6478 49.7935 21.8831 49.7935 22.236C49.7935 22.7066 50.1465 22.8242 51.4406 23.1772C53.6759 23.6478 55.0876 24.3537 55.0876 26.236C55.0876 28.236 53.5582 29.4125 51.0876 29.4125C49.3229 29.5301 47.6759 28.9419 46.4994 27.8831Z" fill="white"/>
    </g>
    <defs>
        <clipPath id="clip0_612_2854">
            <rect width="60" height="60" fill="white" transform="translate(0.5)"/>
        </clipPath>
    </defs>
</svg>
