<svg width="172" height="172" viewBox="0 0 172 172" fill="none" xmlns="http://www.w3.org/2000/svg">
<path d="M147.584 156.726H147.592L147.601 156.726C157.704 156.636 166.038 148.322 165.954 138.181L165.974 35.551V35.5497C165.966 19.0638 147.062 9.52487 133.941 19.4078C133.939 19.4097 133.936 19.4116 133.934 19.4135L89.1768 52.5234L89.1634 52.5333L89.1502 52.5434C87.6881 53.6632 85.4713 53.7124 83.7443 52.5245L39.0008 19.4799L38.9947 19.4754L38.9886 19.4709C25.5768 9.72205 6.78174 19.2419 6.78831 35.7558L6.76807 138.394L6.76806 138.403L6.76814 138.413C6.85751 148.516 15.1723 156.85 25.3138 156.765C25.3167 156.765 25.3195 156.765 25.3224 156.765L147.584 156.726Z" fill="#FE2857" stroke="white" stroke-width="4"/>
<path d="M142.325 144.716L32.4308 144.691C24.6455 144.711 18.3286 138.467 18.4847 130.673L18.4796 82.7168C18.4592 74.9315 24.7031 68.6146 32.4969 68.7708L142.391 68.7961C150.177 68.7757 156.493 75.0197 156.337 82.8135L156.342 130.77C156.354 138.379 150.11 144.695 142.325 144.716Z" fill="black"/>
<path d="M95.2123 132.825L79.2886 132.883C76.9849 132.816 75.126 130.959 75.1922 128.655C75.2584 126.352 77.1156 124.493 79.4193 124.559L95.343 124.501C97.6467 124.567 99.5056 126.425 99.4394 128.728C99.3732 131.032 97.516 132.891 95.2123 132.825Z" fill="white"/>
<path d="M110.944 99.3298C111.121 99.3213 111.121 99.3213 111.298 99.3128L126.515 99.2891C129.701 99.3129 132.486 102.01 132.462 105.197C132.438 108.383 130.085 110.974 126.907 111.127C126.731 111.135 126.731 111.135 126.554 111.144L111.337 111.167C108.15 111.144 105.366 108.446 105.39 105.26C105.237 102.082 107.766 99.4826 110.944 99.3298ZM110.503 90.1489C102.558 90.5309 96.1547 97.2095 96.1835 105.171C96.2294 113.486 102.925 120.243 111.24 120.197L126.457 120.173C126.634 120.165 126.987 120.148 127.164 120.139C135.108 119.757 141.512 113.079 141.483 105.117C141.437 96.802 134.742 90.0454 126.427 90.0912L111.209 90.115C110.856 90.1319 110.68 90.1404 110.503 90.1489Z" fill="white"/>
<path d="M55.1487 90.8637C62.5639 90.5072 68.8553 96.2214 69.2118 103.637C69.5683 111.052 63.8541 117.343 56.4389 117.7C49.0237 118.056 42.7322 112.342 42.3757 104.927C42.0192 97.5116 47.7334 91.2202 55.1487 90.8637ZM54.7073 81.683C42.172 82.2857 32.5922 92.833 33.1949 105.368C33.7976 117.904 44.345 127.483 56.8803 126.881C69.4156 126.278 78.9953 115.731 78.3926 103.195C77.7984 90.8365 67.2426 81.0804 54.7073 81.683Z" fill="white"/>
</svg>
