<svg width="124" height="48" viewBox="0 0 124 48" fill="none" xmlns="http://www.w3.org/2000/svg">
<path d="M54.2904 27.4617C54.2904 32.4587 50.3812 36.1409 45.5838 36.1409C40.7864 36.1409 36.8773 32.4587 36.8773 27.4617C36.8773 22.4295 40.7864 18.7826 45.5838 18.7826C50.3812 18.7826 54.2904 22.4295 54.2904 27.4617ZM50.4791 27.4617C50.4791 24.3391 48.2134 22.2026 45.5838 22.2026C42.9543 22.2026 40.6886 24.3391 40.6886 27.4617C40.6886 30.553 42.9543 32.7209 45.5838 32.7209C48.2134 32.7209 50.4791 30.5491 50.4791 27.4617Z" fill="#EA4335"/>
<path d="M73.073 27.4617C73.073 32.4587 69.1638 36.1409 64.3664 36.1409C59.569 36.1409 55.6599 32.4587 55.6599 27.4617C55.6599 22.4335 59.569 18.7826 64.3664 18.7826C69.1638 18.7826 73.073 22.4295 73.073 27.4617ZM69.2617 27.4617C69.2617 24.3391 66.996 22.2026 64.3664 22.2026C61.7369 22.2026 59.4712 24.3391 59.4712 27.4617C59.4712 30.553 61.7369 32.7209 64.3664 32.7209C66.996 32.7209 69.2617 30.5491 69.2617 27.4617Z" fill="#FBBC05"/>
<path d="M91.073 19.3069V34.8887C91.073 41.2982 87.293 43.9161 82.8243 43.9161C78.6177 43.9161 76.086 41.1026 75.1312 38.8017L78.4495 37.4204C79.0404 38.833 80.4882 40.5 82.8204 40.5C85.6808 40.5 87.4534 38.7352 87.4534 35.413V34.1648H87.3204C86.4673 35.2174 84.8238 36.1369 82.7499 36.1369C78.4103 36.1369 74.4347 32.3569 74.4347 27.493C74.4347 22.5939 78.4103 18.7826 82.7499 18.7826C84.8199 18.7826 86.4634 19.7022 87.3204 20.7235H87.4534V19.3109H91.073V19.3069ZM87.7234 27.493C87.7234 24.4369 85.6847 22.2026 83.0904 22.2026C80.4608 22.2026 78.2577 24.4369 78.2577 27.493C78.2577 30.5178 80.4608 32.7209 83.0904 32.7209C85.6847 32.7209 87.7234 30.5178 87.7234 27.493Z" fill="#4285F4"/>
<path d="M97.0404 10.1739V35.6087H93.323V10.1739H97.0404Z" fill="#34A853"/>
<path d="M111.526 30.3182L114.485 32.2904C113.53 33.703 111.229 36.1369 107.253 36.1369C102.323 36.1369 98.6407 32.3256 98.6407 27.4578C98.6407 22.2965 102.354 18.7786 106.827 18.7786C111.331 18.7786 113.534 22.363 114.254 24.2999L114.649 25.286L103.047 30.0912C103.935 31.8325 105.316 32.7208 107.253 32.7208C109.194 32.7208 110.54 31.766 111.526 30.3182ZM102.421 27.1956L110.176 23.9751C109.75 22.8912 108.466 22.136 106.956 22.136C105.019 22.136 102.323 23.846 102.421 27.1956Z" fill="#EA4335"/>
<path d="M22.806 25.204V21.5218H35.2142C35.3355 22.1635 35.3981 22.9227 35.3981 23.7444C35.3981 26.507 34.6429 29.9231 32.209 32.357C29.8416 34.8222 26.8168 36.137 22.8099 36.137C15.3829 36.137 9.1377 30.0874 9.1377 22.6605C9.1377 15.2335 15.3829 9.18396 22.8099 9.18396C26.9186 9.18396 29.8455 10.7961 32.0447 12.8974L29.4464 15.4957C27.8694 14.0166 25.7329 12.8661 22.806 12.8661C17.3825 12.8661 13.1407 17.237 13.1407 22.6605C13.1407 28.084 17.3825 32.4548 22.806 32.4548C26.3238 32.4548 28.3273 31.0422 29.6107 29.7587C30.6516 28.7179 31.3364 27.2309 31.6064 25.2L22.806 25.204Z" fill="#4285F4"/>
</svg>
