<svg width="48" height="48" viewBox="0 0 48 48" fill="none" xmlns="http://www.w3.org/2000/svg">
<path d="M48.0001 6.10352e-05H0.00012207V48.0001H48.0001V6.10352e-05Z" fill="black"/>
<path d="M23.4 39.0001H5.40002V42H23.4V39.0001Z" fill="white"/>
<path d="M4.46899 12.3728L5.80715 11.1096C5.93524 11.3097 6.10853 11.4769 6.31307 11.5978C6.51762 11.7186 6.74768 11.7897 6.98474 11.8054C7.49858 11.8054 7.8305 11.4522 7.83051 10.7564L7.83055 6.0141H9.89669L9.89665 10.7671C9.92587 11.1505 9.87531 11.5359 9.74817 11.8989C9.62103 12.2618 9.42006 12.5945 9.15794 12.8759C8.88327 13.1332 8.55994 13.333 8.20696 13.4635C7.85398 13.594 7.47847 13.6527 7.1025 13.636C6.59304 13.6616 6.08526 13.5594 5.62533 13.3388C5.1654 13.1182 4.7679 12.7861 4.46899 12.3728Z" fill="white"/>
<path d="M10.8219 6.01404L16.849 6.01407V7.76968H12.8773V8.91511H16.4743V10.5529H12.8773V11.7412H16.9025V13.5075H10.8219L10.8219 6.01404Z" fill="white"/>
<path d="M19.7853 7.83388H17.5479V6.01404L24.1102 6.01407V7.83392H21.8621L21.8621 13.5075H19.7852L19.7853 7.83388Z" fill="white"/>
<path d="M5.30475 16.4634H8.83778C9.2055 16.4343 9.57536 16.4779 9.92622 16.5918C10.2771 16.7057 10.602 16.8876 10.8825 17.1272C11.0403 17.2881 11.1642 17.479 11.2469 17.6886C11.3297 17.8982 11.3696 18.1222 11.3643 18.3475V18.369C11.3715 18.7335 11.2637 19.0911 11.0562 19.3909C10.8486 19.6906 10.5518 19.9174 10.208 20.0389C11.118 20.3386 11.6961 20.8525 11.6961 21.8694V21.8908C11.6961 23.1754 10.6469 23.9569 8.85917 23.9568H5.30469L5.30475 16.4634ZM9.31952 18.7757C9.31952 18.3582 8.98768 18.1334 8.37745 18.1334H7.32802V19.4501H8.32391C8.95553 19.4501 9.31952 19.236 9.31953 18.7971L9.31952 18.7757ZM8.60228 20.906H7.328V22.2869H8.62365C9.26595 22.2869 9.61926 22.0407 9.61927 21.6018V21.5804C9.61926 21.1736 9.29811 20.906 8.60228 20.906Z" fill="white"/>
<path d="M12.3617 16.4636H15.6809C16.1207 16.4284 16.5631 16.4813 16.9822 16.6192C17.4013 16.7571 17.7887 16.9771 18.1217 17.2665C18.3462 17.4962 18.5209 17.7697 18.6351 18.0699C18.7493 18.3701 18.8004 18.6906 18.7854 19.0114V19.0329C18.8039 19.5314 18.665 20.023 18.3883 20.4381C18.1116 20.8532 17.7111 21.1705 17.2438 21.3451L19.0316 23.9571H16.6443L15.1348 21.6876H14.4385V23.9571H12.3617L12.3617 16.4636ZM15.5951 20.0605C16.291 20.0605 16.7085 19.7179 16.7085 19.172V19.1506C16.7085 18.5511 16.2696 18.2514 15.5845 18.2514H14.4385V20.0605L15.5951 20.0605Z" fill="white"/>
<path d="M21.6726 16.4101H23.6745L26.8647 23.957H24.638L24.1027 22.6082H21.2016L20.6662 23.957H18.493L21.6726 16.4101ZM23.4925 20.9918L22.6575 18.8722L21.8117 20.9918L23.4925 20.9918Z" fill="white"/>
<path d="M27.1693 16.4421H29.2461L29.246 23.9356H27.1692L27.1693 16.4421Z" fill="white"/>
<path d="M30.0515 16.4421H31.9891L34.6845 20.403L34.6846 16.4422H36.74L36.74 23.9356H34.9307L32.1069 19.8249L32.1068 23.9356H30.0514L30.0515 16.4421Z" fill="white"/>
<path d="M37.0936 22.8221L38.2498 21.4412C38.9329 22.0104 39.7908 22.3278 40.6799 22.3404C41.2473 22.3404 41.5471 22.1477 41.5471 21.8266V21.8052C41.5471 21.484 41.3009 21.3234 40.2732 21.0772C38.678 20.7133 37.4469 20.2636 37.4469 18.7329V18.7114C37.4469 17.3198 38.5496 16.3136 40.3481 16.3136C41.4612 16.271 42.5533 16.6237 43.4313 17.3091L42.3929 18.7757C41.7864 18.3189 41.0535 18.0609 40.2946 18.0371C39.7914 18.0371 39.5452 18.2405 39.5452 18.5188V18.5402C39.5452 18.8828 39.8021 19.0326 40.8512 19.2681C42.5641 19.6428 43.6347 20.1995 43.6347 21.6018V21.6232C43.6347 23.154 42.4249 24.0639 40.605 24.0639C39.3222 24.0926 38.0732 23.6509 37.0936 22.8221Z" fill="white"/>
</svg>
