<svg id="svg" version="1.1" xmlns="http://www.w3.org/2000/svg" xmlns:xlink="http://www.w3.org/1999/xlink" width="400" height="110.45871559633028" viewBox="0, 0, 400,110.45871559633028"><g id="svgg"><path id="path0" d="M71.417 18.683 C 68.477 18.968,64.890 19.806,62.000 20.882 C 61.404 21.104,60.767 21.340,60.583 21.408 C 58.373 22.222,54.990 24.126,53.250 25.534 C 53.067 25.683,52.279 26.308,51.500 26.923 C 49.679 28.360,46.677 31.386,45.938 32.529 C 45.623 33.017,45.052 33.829,44.671 34.333 C 43.723 35.586,42.333 37.904,42.333 38.231 C 42.333 38.477,44.168 38.500,63.750 38.500 L 85.167 38.500 85.167 40.822 L 85.167 43.144 84.292 44.408 C 83.810 45.104,82.869 46.403,82.199 47.295 C 80.158 50.015,77.015 54.230,76.766 54.583 C 76.636 54.767,75.415 56.417,74.052 58.250 C 72.688 60.083,71.391 61.846,71.168 62.167 C 70.945 62.487,70.703 62.775,70.631 62.806 C 70.559 62.836,70.500 62.967,70.500 63.097 C 70.500 63.300,73.354 63.333,90.486 63.333 L 110.472 63.333 110.641 62.542 C 111.190 59.971,111.250 59.249,111.250 55.167 C 111.250 43.792,107.140 34.923,98.223 27.058 C 91.519 21.144,80.745 17.778,71.417 18.683 " stroke="none" fill="#fcb434" fill-rule="evenodd"></path><path id="path1" d="M156.434 33.857 C 155.253 34.394,154.218 34.833,154.135 34.833 C 154.052 34.833,153.200 35.203,152.242 35.655 L 150.500 36.477 150.500 56.238 L 150.500 76.000 154.583 76.000 L 158.667 76.000 158.672 68.208 C 158.677 61.457,158.709 60.458,158.913 60.728 C 159.043 60.899,159.361 61.274,159.620 61.561 C 160.482 62.515,166.076 69.017,166.498 69.554 C 167.927 71.379,171.420 75.618,171.637 75.792 C 171.951 76.043,181.833 76.098,181.833 75.848 C 181.833 75.541,178.794 71.899,175.979 68.833 C 175.179 67.962,174.082 66.688,173.542 66.000 C 173.001 65.313,171.962 64.112,171.233 63.333 C 168.414 60.322,166.647 58.308,166.698 58.166 C 166.726 58.084,168.149 56.569,169.859 54.800 C 171.569 53.031,173.175 51.321,173.429 51.000 C 173.682 50.679,174.692 49.592,175.672 48.583 C 178.188 45.996,180.675 43.149,180.570 42.978 C 180.521 42.898,178.329 42.835,175.698 42.838 L 170.917 42.842 169.110 44.963 C 168.116 46.129,165.379 49.231,163.027 51.857 L 158.750 56.630 158.667 44.755 L 158.583 32.881 156.434 33.857 M229.417 33.401 C 226.730 34.657,226.399 34.806,226.031 34.915 C 225.819 34.978,224.938 35.358,224.073 35.759 L 222.500 36.489 222.500 39.661 L 222.500 42.833 219.750 42.833 L 217.000 42.833 217.000 46.000 L 217.000 49.167 219.750 49.167 L 222.500 49.167 222.500 62.583 L 222.500 76.000 226.750 76.000 L 231.000 76.000 231.000 62.583 L 231.000 49.167 243.928 49.167 L 256.856 49.167 256.528 49.625 C 256.347 49.877,255.172 51.433,253.917 53.083 C 252.661 54.733,251.192 56.683,250.652 57.417 C 248.068 60.923,246.726 62.726,244.458 65.736 C 243.106 67.531,242.000 69.045,242.000 69.101 C 242.000 69.156,241.813 69.425,241.583 69.697 C 241.174 70.184,241.167 70.242,241.167 73.097 L 241.167 76.001 263.042 75.959 L 284.917 75.917 284.959 59.542 L 285.002 43.167 280.751 43.167 L 276.500 43.167 276.500 56.417 L 276.500 69.667 263.719 69.667 L 250.938 69.667 251.367 69.208 C 251.603 68.956,252.929 67.212,254.312 65.333 C 255.696 63.454,258.441 59.742,260.414 57.083 C 262.386 54.425,264.601 51.426,265.337 50.418 L 266.674 48.587 266.629 45.752 L 266.583 42.917 248.792 42.874 L 231.000 42.832 231.000 37.833 C 231.000 33.938,230.954 32.836,230.792 32.844 C 230.677 32.850,230.058 33.101,229.417 33.401 M297.583 33.811 C 296.392 34.345,294.573 35.149,293.542 35.598 L 291.667 36.413 291.667 56.207 L 291.667 76.000 295.833 76.000 L 300.000 76.000 300.000 54.417 C 300.000 42.546,299.944 32.835,299.875 32.837 C 299.806 32.838,298.775 33.277,297.583 33.811 M312.750 33.822 C 311.558 34.359,309.742 35.162,308.713 35.607 L 306.843 36.417 306.838 56.211 L 306.833 76.006 311.042 75.961 L 315.250 75.917 315.292 54.375 C 315.326 37.193,315.292 32.835,315.126 32.840 C 315.011 32.844,313.942 33.286,312.750 33.822 M333.209 42.178 C 330.352 42.455,327.294 43.265,325.272 44.282 L 324.127 44.858 324.224 45.637 C 324.278 46.066,324.406 47.542,324.509 48.917 C 324.612 50.292,324.723 51.506,324.756 51.616 C 324.793 51.738,325.253 51.520,325.950 51.050 C 332.619 46.545,340.383 47.914,341.309 53.758 C 341.502 54.976,341.864 54.789,338.563 55.174 C 333.148 55.805,332.437 55.952,329.923 56.951 C 323.931 59.334,321.114 64.064,322.405 69.573 C 323.527 74.357,326.664 76.586,332.250 76.569 C 336.709 76.556,339.225 75.521,341.265 72.860 C 341.895 72.039,341.811 71.927,342.180 74.083 C 342.545 76.209,342.063 76.000,346.598 76.000 L 350.537 76.000 350.417 75.375 C 350.352 75.031,350.225 74.337,350.135 73.833 C 350.046 73.329,349.917 68.304,349.849 62.667 C 349.701 50.275,349.703 50.286,347.203 46.745 C 344.735 43.248,339.572 41.563,333.209 42.178 M39.504 44.938 C 37.482 51.751,37.689 60.473,40.033 67.161 C 40.922 69.697,43.571 74.881,44.404 75.714 C 44.524 75.834,44.979 76.453,45.415 77.091 C 49.107 82.486,56.208 87.678,62.833 89.824 C 80.989 95.708,99.571 87.896,107.769 70.935 C 108.261 69.917,108.664 68.952,108.665 68.792 C 108.667 68.515,107.449 68.500,85.417 68.500 L 62.167 68.500 62.167 66.006 L 62.167 63.513 62.913 62.597 C 64.236 60.972,68.000 55.872,68.000 55.704 C 68.000 55.614,68.125 55.438,68.277 55.312 C 68.611 55.036,73.493 48.578,76.166 44.875 C 76.447 44.486,76.720 44.054,76.773 43.917 C 76.858 43.695,74.750 43.667,58.375 43.667 L 39.882 43.667 39.504 44.938 M194.222 43.914 C 186.827 45.255,182.388 50.914,182.053 59.423 C 181.568 71.774,188.171 78.974,199.333 78.263 C 207.438 77.747,212.361 73.174,213.727 64.892 C 216.054 50.786,207.434 41.516,194.222 43.914 M200.253 50.424 C 201.393 50.737,202.588 51.563,203.379 52.585 C 204.829 54.460,205.670 58.174,205.439 61.692 C 205.034 67.873,203.028 71.036,199.117 71.661 C 194.519 72.396,191.389 69.113,190.653 62.785 C 189.654 54.188,193.926 48.687,200.253 50.424 M341.500 63.315 L 341.500 66.797 340.775 67.773 C 337.477 72.220,330.800 71.481,330.527 66.639 C 330.306 62.724,334.175 60.265,341.208 59.851 C 341.477 59.835,341.500 60.104,341.500 63.315 " stroke="none" fill="#040404" fill-rule="evenodd"></path><path id="path2" d="" stroke="none" fill="#c0b81c" fill-rule="evenodd"></path><path id="path3" d="" stroke="none" fill="#40601c" fill-rule="evenodd"></path><path id="path4" d="" stroke="none" fill="#44041c" fill-rule="evenodd"></path></g></svg>