<svg width="331" height="110" viewBox="0 0 331 110" fill="none" xmlns="http://www.w3.org/2000/svg">
<path fill-rule="evenodd" clip-rule="evenodd" d="M41.2974 18.1459C38.3574 18.4309 34.7704 19.2689 31.8804 20.3449C31.2844 20.5669 30.6474 20.8029 30.4634 20.8709C28.2534 21.6849 24.8704 23.5889 23.1304 24.9969C22.9474 25.1459 22.1594 25.7709 21.3804 26.3859C19.5594 27.8229 16.5574 30.8489 15.8184 31.9919C15.5034 32.4799 14.9324 33.2919 14.5514 33.7959C13.6034 35.0489 12.2134 37.3669 12.2134 37.6939C12.2134 37.9399 14.0484 37.9629 33.6304 37.9629H55.0474V40.2849V42.6069L54.1724 43.8709C53.6904 44.5669 52.7494 45.8659 52.0794 46.7579C50.0384 49.4779 46.8954 53.6929 46.6464 54.0459C46.5164 54.2299 45.2954 55.8799 43.9324 57.7129C42.5684 59.5459 41.2714 61.3089 41.0484 61.6299C40.8254 61.9499 40.5834 62.2379 40.5114 62.2689C40.4394 62.2989 40.3804 62.4299 40.3804 62.5599C40.3804 62.7629 43.2344 62.7959 60.3664 62.7959H80.3524L80.5214 62.0049C81.0704 59.4339 81.1304 58.7119 81.1304 54.6299C81.1304 43.2549 77.0204 34.3859 68.1034 26.5209C61.3994 20.6069 50.6254 17.2409 41.2974 18.1459Z" fill="#FCB434"/>
<path fill-rule="evenodd" clip-rule="evenodd" d="M126.314 33.3199C125.133 33.8569 124.098 34.2959 124.015 34.2959C123.932 34.2959 123.08 34.6659 122.122 35.1179L120.38 35.9399V55.7009V75.4629H124.463H128.547L128.552 67.6709C128.557 60.9199 128.589 59.9209 128.793 60.1909C128.923 60.3619 129.241 60.7369 129.5 61.0239C130.362 61.9779 135.956 68.4799 136.378 69.0169C137.807 70.8419 141.3 75.0809 141.517 75.2549C141.831 75.5059 151.713 75.5609 151.713 75.3109C151.713 75.0039 148.674 71.3619 145.859 68.2959C145.059 67.4249 143.962 66.1509 143.422 65.4629C142.881 64.7759 141.842 63.5749 141.113 62.7959C138.294 59.7849 136.527 57.7709 136.578 57.6289C136.606 57.5469 138.029 56.0319 139.739 54.2629C141.449 52.4939 143.055 50.7839 143.309 50.4629C143.562 50.1419 144.572 49.0549 145.552 48.0459C148.068 45.4589 150.555 42.6119 150.45 42.4409C150.401 42.3609 148.209 42.2979 145.578 42.3009L140.797 42.3049L138.99 44.4259C137.996 45.5919 135.259 48.6939 132.907 51.3199L128.63 56.0929L128.547 44.2179L128.463 32.3439L126.314 33.3199ZM199.297 32.8639C196.61 34.1199 196.279 34.2689 195.911 34.3779C195.699 34.4409 194.818 34.8209 193.953 35.2219L192.38 35.9519V39.1239V42.2959H189.63H186.88V45.4629V48.6299H189.63H192.38V62.0459V75.4629H196.63H200.88V62.0459V48.6299H213.808H226.736L226.408 49.0879C226.227 49.3399 225.052 50.8959 223.797 52.5459C222.541 54.1959 221.072 56.1459 220.532 56.8799C217.948 60.3859 216.606 62.1889 214.338 65.1989C212.986 66.9939 211.88 68.5079 211.88 68.5639C211.88 68.6189 211.693 68.8879 211.463 69.1599C211.054 69.6469 211.047 69.7049 211.047 72.5599V75.4639L232.922 75.4219L254.797 75.3799L254.839 59.0049L254.882 42.6299H250.631H246.38V55.8799V69.1299H233.599H220.818L221.247 68.6709C221.483 68.4189 222.809 66.6749 224.192 64.7959C225.576 62.9169 228.321 59.2049 230.294 56.5459C232.266 53.8879 234.481 50.8889 235.217 49.8809L236.554 48.0499L236.509 45.2149L236.463 42.3799L218.672 42.3369L200.88 42.2949V37.2959C200.88 33.4009 200.834 32.2989 200.672 32.3069C200.557 32.3129 199.938 32.5639 199.297 32.8639ZM267.463 33.2739C266.272 33.8079 264.453 34.6119 263.422 35.0609L261.547 35.8759V55.6699V75.4629H265.713H269.88V53.8799C269.88 42.0089 269.824 32.2979 269.755 32.2999C269.686 32.3009 268.655 32.7399 267.463 33.2739ZM282.63 33.2849C281.438 33.8219 279.622 34.6249 278.593 35.0699L276.723 35.8799L276.718 55.6739L276.713 75.4689L280.922 75.4239L285.13 75.3799L285.172 53.8379C285.206 36.6559 285.172 32.2979 285.006 32.3029C284.891 32.3069 283.822 32.7489 282.63 33.2849ZM303.089 41.6409C300.232 41.9179 297.174 42.7279 295.152 43.7449L294.007 44.3209L294.104 45.0999C294.158 45.5289 294.286 47.0049 294.389 48.3799C294.492 49.7549 294.603 50.9689 294.636 51.0789C294.673 51.2009 295.133 50.9829 295.83 50.5129C302.499 46.0079 310.263 47.3769 311.189 53.2209C311.382 54.4389 311.744 54.2519 308.443 54.6369C303.028 55.2679 302.317 55.4149 299.803 56.4139C293.811 58.7969 290.994 63.5269 292.285 69.0359C293.407 73.8199 296.544 76.0489 302.13 76.0319C306.589 76.0189 309.105 74.9839 311.145 72.3229C311.775 71.5019 311.691 71.3899 312.06 73.5459C312.425 75.6719 311.943 75.4629 316.478 75.4629H320.417L320.297 74.8379C320.232 74.4939 320.105 73.7999 320.015 73.2959C319.926 72.7919 319.797 67.7669 319.729 62.1299C319.581 49.7379 319.583 49.7489 317.083 46.2079C314.615 42.7109 309.452 41.0259 303.089 41.6409ZM9.38438 44.4009C7.36238 51.2139 7.56937 59.9359 9.91337 66.6239C10.8024 69.1599 13.4514 74.3439 14.2844 75.1769C14.4044 75.2969 14.8594 75.9159 15.2954 76.5539C18.9874 81.9489 26.0884 87.1409 32.7134 89.2869C50.8694 95.1709 69.4514 87.3589 77.6494 70.3979C78.1414 69.3799 78.5444 68.4149 78.5454 68.2549C78.5474 67.9779 77.3294 67.9629 55.2974 67.9629H32.0474V65.4689V62.9759L32.7934 62.0599C34.1164 60.4349 37.8804 55.3349 37.8804 55.1669C37.8804 55.0769 38.0054 54.9009 38.1574 54.7749C38.4914 54.4989 43.3734 48.0409 46.0464 44.3379C46.3274 43.9489 46.6004 43.5169 46.6534 43.3799C46.7384 43.1579 44.6304 43.1299 28.2554 43.1299H9.76237L9.38438 44.4009ZM164.102 43.3769C156.707 44.7179 152.268 50.3769 151.933 58.8859C151.448 71.2369 158.051 78.4369 169.213 77.7259C177.318 77.2099 182.241 72.6369 183.607 64.3549C185.934 50.2489 177.314 40.9789 164.102 43.3769ZM170.133 49.8869C171.273 50.1999 172.468 51.0259 173.259 52.0479C174.709 53.9229 175.55 57.6369 175.319 61.1549C174.914 67.3359 172.908 70.4989 168.997 71.1239C164.399 71.8589 161.269 68.5759 160.533 62.2479C159.534 53.6509 163.806 48.1499 170.133 49.8869ZM311.38 62.7779V66.2599L310.655 67.2359C307.357 71.6829 300.68 70.9439 300.407 66.1019C300.186 62.1869 304.055 59.7279 311.088 59.3139C311.357 59.2979 311.38 59.5669 311.38 62.7779Z" fill="#040404"/>
</svg>
