<svg width="124" height="48" viewBox="0 0 124 48" fill="none" xmlns="http://www.w3.org/2000/svg">
<path d="M30.0576 13.9821C30.0352 13.8253 29.9008 13.7357 29.7888 13.7357C29.6768 13.7357 27.4592 13.6909 27.4592 13.6909C27.4592 13.6909 25.6 11.8989 25.4208 11.6973C25.2416 11.5181 24.8832 11.5629 24.7488 11.6077C24.7488 11.6077 24.3904 11.7197 23.808 11.8989C23.7184 11.5853 23.5616 11.2045 23.36 10.8013C22.7104 9.54689 21.7248 8.87489 20.56 8.87489C20.4704 8.87489 20.4032 8.87489 20.3136 8.89729C20.2688 8.85249 20.2464 8.80769 20.2016 8.78529C19.6864 8.24769 19.0368 7.97889 18.2528 8.00129C16.752 8.04609 15.2512 9.14369 14.0192 11.0701C13.168 12.4365 12.5184 14.1389 12.3168 15.4605C10.592 15.9981 9.3824 16.3789 9.3376 16.3789C8.464 16.6477 8.4416 16.6701 8.3296 17.4989C8.2848 18.1261 6 35.7997 6 35.7997L25.1744 39.1149L33.4848 37.0541C33.4624 37.0541 30.08 14.1389 30.0576 13.9821ZM22.8448 12.2125C22.3968 12.3469 21.904 12.5037 21.3664 12.6829C21.3664 11.9213 21.2544 10.8461 20.9184 9.95009C22.0608 10.1293 22.6208 11.4285 22.8448 12.2125ZM20.3584 12.9741C19.3504 13.2877 18.2528 13.6237 17.1552 13.9597C17.4688 12.7725 18.0512 11.6077 18.768 10.8237C19.0368 10.5325 19.4176 10.2189 19.8432 10.0397C20.2912 10.9133 20.3808 12.1453 20.3584 12.9741ZM18.2976 9.00929C18.656 9.00929 18.9472 9.07649 19.1936 9.25569C18.7904 9.45729 18.3872 9.77089 18.0288 10.1741C17.0656 11.2045 16.3264 12.7949 16.0352 14.3405C15.1168 14.6317 14.2208 14.9005 13.4144 15.1469C13.952 12.7053 15.9904 9.07649 18.2976 9.00929Z" fill="#95BF47"/>
<path d="M29.7888 13.7357C29.6768 13.7357 27.4592 13.6909 27.4592 13.6909C27.4592 13.6909 25.6 11.8989 25.4208 11.6973C25.3536 11.6301 25.264 11.5853 25.1744 11.5853V39.1149L33.4848 37.0541C33.4848 37.0541 30.1024 14.1389 30.08 13.9821C30.0352 13.8253 29.9008 13.7357 29.7888 13.7357Z" fill="#5E8E3E"/>
<path d="M20.5599 18.0141L19.5967 21.6205C19.5967 21.6205 18.5215 21.1277 17.2447 21.2173C15.3631 21.3293 15.3631 22.5165 15.3631 22.8077C15.4751 24.4205 19.7087 24.7789 19.9551 28.5645C20.1343 31.5437 18.3871 33.5821 15.8335 33.7389C12.7871 33.8957 11.1071 32.1037 11.1071 32.1037L11.7567 29.3485C11.7567 29.3485 13.4591 30.6253 14.8031 30.5357C15.6767 30.4909 16.0127 29.7517 15.9679 29.2589C15.8335 27.1533 12.3839 27.2877 12.1599 23.8157C11.9807 20.9037 13.8847 17.9693 18.0959 17.7005C19.7311 17.5885 20.5599 18.0141 20.5599 18.0141Z" fill="white"/>
<path fill-rule="evenodd" clip-rule="evenodd" d="M104.896 20.3212H102.253L102.387 19.694C102.611 18.3948 103.373 17.2524 104.65 17.2524C105.322 17.2524 105.859 17.454 105.859 17.454L106.599 14.4748C106.599 14.4748 105.949 14.1388 104.538 14.1388C103.194 14.1388 101.85 14.5196 100.819 15.3932C99.5201 16.4908 98.9153 18.0812 98.6241 19.694L98.5121 20.3212H96.7425L96.1825 23.1884H97.9521L95.9361 33.806H99.7217L101.738 23.1884H104.359L104.896 20.3212ZM54.2946 22.0459C55.3026 20.8363 56.6242 20.0299 58.3042 20.0299C60.2978 20.0299 61.4178 21.3291 61.3954 23.4795C61.3954 24.1516 61.2834 25.1371 61.1266 25.966L59.6482 33.806H55.8626L57.2962 26.2123C57.4082 25.6971 57.453 25.0475 57.453 24.5323C57.453 23.7035 57.117 23.1211 56.2658 23.1211C55.0562 23.1211 53.757 24.6667 53.2642 27.1756L52.0098 33.806H48.2242L51.9202 14.4075H55.7058L54.2498 22.0235L54.2946 22.0459ZM43.2735 24.1291C43.2735 24.7339 43.7663 25.1819 44.7295 25.6971C46.2079 26.5483 47.4399 27.7131 47.4623 29.3483C47.4623 32.3723 44.9983 34.0523 41.5935 34.0523C39.2415 34.0523 37.8527 33.1115 37.8527 33.1115L38.7935 30.4235C38.7935 30.4235 40.3167 31.2523 41.9071 31.2523C42.9823 31.2523 43.5647 30.6699 43.5647 29.9531C43.5647 29.2587 43.1615 28.7883 41.9967 28.1387C40.5631 27.3099 39.4879 26.1675 39.4879 24.6443C39.4879 21.9787 41.7951 20.0747 45.1103 20.0747C47.4847 20.0747 48.2911 20.7019 48.2911 20.7019L47.4175 23.3899C47.4175 23.3899 46.2975 22.8747 45.0431 22.8747C43.9679 22.8747 43.2735 23.3675 43.2735 24.1291ZM69.9968 20.03C65.4272 20.03 62.4032 24.1516 62.4032 28.7436C62.4032 31.678 64.2176 34.0524 67.6224 34.0524C72.1024 34.0524 75.1264 30.0428 75.1264 25.3388C75.1488 22.6284 73.5584 20.03 69.9968 20.03ZM68.1376 31.1628C66.8384 31.1628 66.3008 30.0652 66.3008 28.6764C66.3008 26.5036 67.4208 22.9644 69.4816 22.9644C70.8256 22.9644 71.2736 24.1292 71.2736 25.2492C71.2736 27.5788 70.1312 31.1628 68.1376 31.1628ZM80.8385 22.2924C80.8385 22.2924 82.2945 20.03 84.8481 20.03C87.6257 20.03 88.7681 22.3148 88.7681 24.8684C88.7681 29.4828 85.8561 34.0524 81.3985 34.0524C79.9649 34.0524 79.1809 33.5596 79.1809 33.5596H79.0913L78.0385 39.182H74.2529L76.8961 25.294C77.1873 23.726 77.5009 21.6204 77.6577 20.254H81.0177L80.7937 22.2924H80.8385ZM79.6513 30.6476C79.6513 30.6476 80.2337 31.2076 81.2193 31.2076C83.3473 31.2076 84.8033 27.7132 84.8033 25.2492C84.8033 24.2412 84.4449 23.166 83.2801 23.166C81.9585 23.166 80.7265 24.734 80.2785 27.1084L79.6513 30.6476ZM94.1889 14.5868C92.9793 14.5868 92.0161 15.55 92.0161 16.782C92.0161 17.902 92.7329 18.686 93.8081 18.686H93.8529C95.0401 18.686 96.0481 17.8796 96.0705 16.4908C96.0705 15.3932 95.3313 14.5868 94.1889 14.5868ZM92.6655 33.7837H88.8799L91.4335 20.3437H95.2415L92.6655 33.7837ZM110.608 29.5949C111.661 26.3245 114.035 20.3437 114.035 20.3437H118L113.363 30.3117C111.728 33.7165 110.115 36.2253 108.391 37.8381C107.047 39.0925 105.434 39.7421 104.672 39.8989L103.619 36.6733C104.247 36.4493 105.053 36.1133 105.77 35.5981C106.643 34.9933 107.383 34.1645 107.831 33.3133C107.943 33.1341 107.965 32.9549 107.92 32.6861L105.635 20.3437H109.623C109.623 20.3437 110.496 28.5421 110.563 29.5949H110.608Z" fill="black"/>
</svg>
