<svg width="172" height="172" viewBox="0 0 172 172" fill="none" xmlns="http://www.w3.org/2000/svg">
<path d="M132.247 21.8378L132.236 21.8457L132.225 21.8536L88.2396 53.6842L88.22 53.6985L88.2007 53.7132C86.7519 54.8161 84.5745 54.8264 82.8609 53.6729L38.652 20.8662L38.6515 20.8658C25.4808 11.0987 6.76848 20.0594 6.88136 36.3379C6.88137 36.3392 6.88138 36.3406 6.88139 36.3419L7.20315 136.431C7.20315 136.431 7.20315 136.432 7.20315 136.432C7.2254 146.336 15.4169 154.637 25.4712 154.577L146.242 155.907C146.243 155.907 146.244 155.907 146.245 155.907C156.232 156.028 164.593 148.061 164.384 138.045L164.062 37.9644L164.062 37.9508C163.95 26.7844 155.194 18.9276 145.579 18.065L145.536 18.0612L145.494 18.0592C141.088 17.8536 136.357 18.9479 132.247 21.8378Z" fill="url(#paint0_linear_6764_196444)" stroke="white" stroke-width="4"/>
<path d="M139.227 145.231L31.1918 143.718C23.5378 143.603 17.4405 137.347 17.5558 129.693L18.1608 82.7169C18.276 75.0629 24.5318 68.9656 32.1858 69.0808L140.221 70.5934C147.875 70.7087 153.973 76.9644 153.857 84.6184L153.252 131.595C153.137 139.249 146.881 145.346 139.227 145.231Z" fill="black"/>
<path d="M82.1182 124.099C79.7398 123.378 78.0966 122.196 78.0966 122.196C77.6065 121.807 77.5056 120.928 77.8948 120.438C78.2839 119.948 79.1632 119.847 79.6533 120.236C79.8119 120.423 85.2173 124.531 91.5163 120.005C92.0785 119.53 92.9289 119.775 93.4046 120.337C93.8803 120.899 93.6353 121.749 93.0731 122.225C88.9939 125.194 85.0011 125.036 82.6083 124.488C82.4642 124.128 82.2912 124.113 82.1182 124.099Z" fill="white"/>
<path d="M38.0227 109.99C37.9298 111.193 36.9796 112.145 35.7476 112.208C34.5289 112.098 33.5506 111.146 33.4694 109.928C33.3882 108.71 34.5126 107.773 35.7446 107.711C37.1374 107.836 38.1156 108.788 38.0227 109.99Z" fill="white"/>
<path d="M71.7668 110.537C71.6739 111.74 70.7237 112.692 69.4917 112.755C68.273 112.645 67.2947 111.693 67.2136 110.475C67.1324 109.257 68.2567 108.32 69.4887 108.258C70.8815 108.382 71.8597 109.335 71.7668 110.537Z" fill="white"/>
<path d="M72.0975 89.8393C72.0046 91.0416 71.0544 91.9942 69.8223 92.0566C68.6036 91.9473 67.6253 90.9946 67.5441 89.7766C67.463 88.5586 68.5873 87.6219 69.8193 87.5595C71.2254 87.5127 72.1905 88.6369 72.0975 89.8393Z" fill="white"/>
<path d="M64.7326 117.616C64.6397 118.818 63.6895 119.77 62.4575 119.833C61.2388 119.723 60.2605 118.771 60.1794 117.553C60.0982 116.335 61.2225 115.398 62.4545 115.336C63.8473 115.461 64.8256 116.413 64.7326 117.616Z" fill="white"/>
<path d="M44.8846 117.529C44.7917 118.731 43.8415 119.684 42.6095 119.746C41.3907 119.637 40.4124 118.684 40.3312 117.466C40.2501 116.248 41.3744 115.311 42.6064 115.249C44.0126 115.202 44.9776 116.326 44.8846 117.529Z" fill="white"/>
<path d="M58.4196 124.406C58.3267 125.609 57.3765 126.561 56.1445 126.624C54.9258 126.514 53.9476 125.562 53.8664 124.344C53.7852 123.126 54.9095 122.189 56.1415 122.127C57.3602 122.236 58.5126 123.204 58.4196 124.406Z" fill="white"/>
<path d="M51.4577 124.348C51.3648 125.55 50.4146 126.503 49.1826 126.565C47.9639 126.456 46.9856 125.503 46.9045 124.285C46.8233 123.067 47.9476 122.13 49.1796 122.068C50.3983 122.177 51.3765 123.13 51.4577 124.348Z" fill="white"/>
<path d="M58.8367 96.3968C58.7437 97.5991 57.7935 98.5516 56.5615 98.6141C55.3428 98.5047 54.3646 97.5521 54.2834 96.3341C54.2022 95.1162 55.3265 94.1793 56.5585 94.1169C57.7772 94.2262 58.7555 95.1789 58.8367 96.3968Z" fill="white"/>
<path d="M51.8749 96.3393C51.7819 97.5416 50.8317 98.4942 49.5997 98.5566C48.3809 98.4473 47.4026 97.4948 47.3215 96.2768C47.2403 95.0588 48.3646 94.1219 49.5966 94.0595C50.8287 93.9971 51.7937 95.1213 51.8749 96.3393Z" fill="white"/>
<path d="M65.1497 89.6075C65.0567 90.8099 64.1065 91.7624 62.8745 91.8248C61.6558 91.7154 60.6775 90.763 60.5964 89.5451C60.5152 88.3271 61.6395 87.3902 62.8715 87.3278C64.0902 87.4372 65.2426 88.4052 65.1497 89.6075Z" fill="white"/>
<path d="M78.426 103.777C78.3331 104.98 77.3829 105.932 76.1509 105.995C74.9321 105.885 73.9539 104.933 73.8727 103.715C73.7916 102.497 74.9158 101.56 76.1479 101.498C77.3666 101.607 78.3448 102.56 78.426 103.777Z" fill="white"/>
<path d="M78.4978 96.6388C78.4049 97.8411 77.4547 98.7936 76.2227 98.856C75.0039 98.7467 74.0257 97.7943 73.9445 96.5763C73.8633 95.3584 74.9876 94.4215 76.2196 94.3591C77.4384 94.4684 78.4166 95.4209 78.4978 96.6388Z" fill="white"/>
<path d="M45.3156 89.3497C45.2227 90.552 44.2725 91.5045 43.0405 91.567C41.8218 91.4576 40.8436 90.505 40.7624 89.287C40.6812 88.0691 41.8055 87.1324 43.0375 87.07C44.4303 87.195 45.4086 88.1474 45.3156 89.3497Z" fill="white"/>
<path d="M38.3537 89.2913C38.2608 90.4937 37.3106 91.446 36.0786 91.5084C34.8599 91.399 33.8816 90.4466 33.8005 89.2287C33.7193 88.0107 34.8436 87.0738 36.0756 87.0114C37.4684 87.1364 38.4466 88.089 38.3537 89.2913Z" fill="white"/>
<path d="M31.7952 103.199C31.7022 104.402 30.752 105.354 29.52 105.417C28.3013 105.307 27.323 104.355 27.2419 103.137C27.1607 101.919 28.285 100.982 29.517 100.92C30.7357 101.029 31.714 101.981 31.7952 103.199Z" fill="white"/>
<path d="M31.8676 96.0659C31.7746 97.2682 30.8244 98.2207 29.5924 98.2832C28.3736 98.1738 27.3953 97.2211 27.3142 96.0032C27.233 94.7852 28.3573 93.8485 29.5893 93.7861C30.8214 93.7237 31.7864 94.8479 31.8676 96.0659Z" fill="white"/>
<path d="M104.127 110.967C104.034 112.169 103.084 113.122 101.852 113.184C100.633 113.075 99.6551 112.122 99.5739 110.904C99.4927 109.686 100.617 108.75 101.849 108.687C103.068 108.797 104.046 109.749 104.127 110.967Z" fill="white"/>
<path d="M137.871 111.515C137.778 112.718 136.828 113.67 135.596 113.732C134.377 113.623 133.399 112.671 133.318 111.453C133.236 110.235 134.361 109.298 135.593 109.235C136.825 109.173 137.79 110.297 137.871 111.515Z" fill="white"/>
<path d="M138.216 90.6448C138.123 91.8471 137.173 92.7995 135.941 92.8619C134.722 92.7525 133.744 91.8001 133.663 90.5822C133.582 89.3642 134.706 88.4274 135.938 88.3649C137.157 88.4743 138.135 89.4268 138.216 90.6448Z" fill="white"/>
<path d="M130.837 118.593C130.744 119.796 129.794 120.748 128.562 120.811C127.343 120.701 126.365 119.749 126.283 118.531C126.202 117.313 127.327 116.376 128.559 116.313C129.791 116.251 130.756 117.375 130.837 118.593Z" fill="white"/>
<path d="M111.002 118.338C110.909 119.54 109.959 120.493 108.727 120.555C107.508 120.446 106.53 119.493 106.449 118.275C106.368 117.057 107.492 116.121 108.724 116.058C109.943 116.168 110.921 117.12 111.002 118.338Z" fill="white"/>
<path d="M124.351 125.369C124.258 126.572 123.308 127.524 122.076 127.587C120.857 127.477 119.879 126.525 119.798 125.307C119.716 124.089 120.841 123.152 122.073 123.09C123.465 123.215 124.444 124.167 124.351 125.369Z" fill="white"/>
<path d="M117.389 125.312C117.296 126.514 116.346 127.467 115.114 127.529C113.895 127.42 112.917 126.467 112.836 125.249C112.754 124.032 113.879 123.095 115.111 123.032C116.517 122.985 117.482 124.11 117.389 125.312Z" fill="white"/>
<path d="M124.768 97.361C124.675 98.5633 123.725 99.5157 122.493 99.5781C121.274 99.4687 120.296 98.5163 120.215 97.2983C120.133 96.0803 121.258 95.1434 122.49 95.081C123.896 95.0342 124.861 96.1586 124.768 97.361Z" fill="white"/>
<path d="M117.82 97.1329C117.727 98.3352 116.777 99.2878 115.545 99.3502C114.326 99.2408 113.348 98.2882 113.267 97.0702C113.186 95.8523 114.31 94.9156 115.542 94.8532C116.935 94.9782 117.913 95.9306 117.82 97.1329Z" fill="white"/>
<path d="M131.082 90.5704C130.989 91.7728 130.039 92.7253 128.807 92.7877C127.588 92.6783 126.61 91.7258 126.529 90.5078C126.447 89.2899 127.572 88.3531 128.804 88.2907C130.196 88.4157 131.175 89.3681 131.082 90.5704Z" fill="white"/>
<path d="M144.357 104.74C144.264 105.943 143.314 106.895 142.082 106.958C140.863 106.848 139.885 105.896 139.804 104.678C139.723 103.46 140.847 102.523 142.079 102.461C143.472 102.586 144.45 103.538 144.357 104.74Z" fill="white"/>
<path d="M144.429 97.6095C144.337 98.8118 143.386 99.7643 142.154 99.8267C140.936 99.7174 139.957 98.7647 139.876 97.5468C139.795 96.3289 140.919 95.3922 142.151 95.3298C143.544 95.4547 144.522 96.4072 144.429 97.6095Z" fill="white"/>
<path d="M111.42 90.3283C111.327 91.5307 110.377 92.4832 109.145 92.5456C107.926 92.4362 106.948 91.4836 106.867 90.2657C106.786 89.0477 107.91 88.1109 109.142 88.0485C110.361 88.1579 111.339 89.1104 111.42 90.3283Z" fill="white"/>
<path d="M104.458 90.2716C104.365 91.4739 103.415 92.4264 102.183 92.4888C100.964 92.3795 99.9856 91.4271 99.9045 90.2091C99.8233 88.9912 100.948 88.0543 102.18 87.9919C103.398 88.1012 104.377 89.0537 104.458 90.2716Z" fill="white"/>
<path d="M97.7269 104.167C97.634 105.37 96.6838 106.322 95.4518 106.385C94.233 106.275 93.2547 105.323 93.1735 104.105C93.0924 102.887 94.2167 101.95 95.4487 101.888C96.8549 101.841 97.8199 102.965 97.7269 104.167Z" fill="white"/>
<path d="M97.8127 96.8577C97.7198 98.0601 96.7696 99.0124 95.5376 99.0748C94.3189 98.9654 93.3406 98.013 93.2595 96.7951C93.1783 95.5771 94.3026 94.6402 95.5346 94.5778C96.9274 94.7028 97.9056 95.6554 97.8127 96.8577Z" fill="white"/>
<defs>
<linearGradient id="paint0_linear_6764_196444" x1="85.1813" y1="29.798" x2="84.5586" y2="142.319" gradientUnits="userSpaceOnUse">
<stop stop-color="#8964F8"/>
<stop offset="0.8112" stop-color="#FE2857"/>
<stop offset="1" stop-color="#FE2857"/>
</linearGradient>
</defs>
</svg>
