<svg width="49" height="48" viewBox="0 0 49 48" fill="none" xmlns="http://www.w3.org/2000/svg">
<path fill-rule="evenodd" clip-rule="evenodd" d="M31.3334 34C40.7222 34 48.3334 26.3888 48.3334 17C48.3334 7.61116 40.7222 0 31.3334 0C21.9445 0 14.3334 7.61116 14.3334 17C14.3334 17.3357 14.3431 17.6691 14.3623 18H26.3334C28.5425 18 30.3334 19.7909 30.3334 22V33.9711C30.6643 33.9903 30.9977 34 31.3334 34ZM28.3334 33.7361V22C28.3334 20.8954 27.4379 20 26.3334 20H14.5972C15.8408 26.9842 21.3492 32.4926 28.3334 33.7361Z" fill="#19191C"/>
<path fill-rule="evenodd" clip-rule="evenodd" d="M12.5689 20H2.33337C1.2288 20 0.333374 20.8954 0.333374 22V46C0.333374 47.1046 1.22881 48 2.33337 48H26.3334C27.4379 48 28.3334 47.1046 28.3334 46V35.7645C20.2426 34.4812 13.8522 28.0908 12.5689 20ZM14.5972 20C15.8408 26.9842 21.3492 32.4926 28.3334 33.7361V22C28.3334 20.8954 27.4379 20 26.3334 20H14.5972Z" fill="#19191C"/>
</svg>
