<svg width="49" height="48" viewBox="0 0 49 48" fill="none" xmlns="http://www.w3.org/2000/svg">
<path d="M1.66675 45V20.8284C1.66675 20.298 1.87746 19.7893 2.25253 19.4142L20.081 1.58578C20.456 1.21071 20.9647 1 21.4952 1H45.6667C46.7713 1 47.6667 1.89543 47.6667 3V26.6867C47.6667 27.2082 47.4631 27.709 47.0992 28.0825L29.2555 46.3957C28.8791 46.7821 28.3625 47 27.8231 47H3.66675C2.56218 47 1.66675 46.1046 1.66675 45Z" fill="#19191C" stroke="#19191C" stroke-width="2"/>
<path d="M24.4294 43H6.75958C6.05647 43 5.66675 42.4068 5.66675 41.9V24.1C5.66675 23.4925 6.15924 23 6.76675 23H24.4253C25.4053 23 25.8961 24.1849 25.2031 24.8778L17.081 33L25.2031 41.1222C25.8336 41.7526 25.4969 43 24.4294 43Z" stroke="white" stroke-width="2"/>
</svg>
