<svg width="548" height="1096" viewBox="0 0 548 1096" fill="none" xmlns="http://www.w3.org/2000/svg">
    <path opacity="0.3" d="M548 -2.39538e-05C476.036 -2.08082e-05 404.776 14.1744 338.289 41.714C271.803 69.2535 211.392 109.619 160.505 160.505C109.619 211.392 69.2535 271.803 41.714 338.289C14.1744 404.776 -3.02452e-05 476.036 -2.39538e-05 548C-1.76625e-05 619.964 14.1744 691.224 41.714 757.711C69.2536 824.197 109.619 884.608 160.506 935.495C211.392 986.381 271.803 1026.75 338.29 1054.29C404.776 1081.83 476.036 1096 548 1096L548 548L548 -2.39538e-05Z" fill="url(#paint0_radial_5428_143958)"/>
    <defs>
        <radialGradient id="paint0_radial_5428_143958" cx="0" cy="0" r="1" gradientUnits="userSpaceOnUse" gradientTransform="translate(548 548) scale(548)">
            <stop stop-color="#6100FF"/>
            <stop offset="1" stop-color="white" stop-opacity="0"/>
        </radialGradient>
    </defs>
</svg>
