<svg width="42" height="48" viewBox="0 0 42 48" fill="none" xmlns="http://www.w3.org/2000/svg">
    <path fill-rule="evenodd" clip-rule="evenodd" d="M2 0C0.895431 0 0 0.89543 0 2V26.0871C0 31.6282 2.86695 36.7748 7.57833 39.6913L21 48L34.4217 39.6913C39.1331 36.7748 42 31.6282 42 26.0871V2C42 0.895431 41.1046 0 40 0H2ZM29.5858 8.5H13C11.6193 8.5 10.5 9.61929 10.5 11V29C10.5 30.3807 11.6193 31.5 13 31.5H29.5858C31.813 31.5 32.9285 28.8072 31.3536 27.2322L24.1213 20L31.3536 12.7678C32.9285 11.1929 31.813 8.5 29.5858 8.5ZM12 11C12 10.4477 12.4477 10 13 10H29.5858C30.4767 10 30.9229 11.0771 30.2929 11.7071L22.7071 19.2929C22.3166 19.6834 22.3166 20.3166 22.7071 20.7071L30.2929 28.2929C30.9229 28.9229 30.4767 30 29.5858 30H13C12.4477 30 12 29.5523 12 29V11Z" fill="#27282C"/>
</svg>
