<svg width="48" height="48" viewBox="0 0 48 48" fill="none" xmlns="http://www.w3.org/2000/svg">
    <path fill-rule="evenodd" clip-rule="evenodd" d="M13.0281 16.5C13.5464 7.30031 21.1706 0 30.5 0C40.165 0 48 7.83502 48 17.5C48 26.8294 40.6997 34.4536 31.5 34.9719V20C31.5 18.067 29.933 16.5 28 16.5H13.0281ZM11.5064 18H2C0.895431 18 0 18.8954 0 20V46C0 47.1046 0.89543 48 2 48H28C29.1046 48 30 47.1046 30 46V36.4936L29.9579 36.4924C19.8948 36.2101 11.7899 28.1052 11.5076 18.0421L11.5064 18ZM30 34.993V33.4923V20C30 18.8954 29.1046 18 28 18H14.5077H13.007C13.0212 18.5057 13.0568 19.006 13.113 19.5C14.0308 27.5668 20.4332 33.9692 28.5 34.887C28.9941 34.9432 29.4944 34.9788 30 34.993Z" fill="#27282C"/>
</svg>
