<svg width="172" height="172" viewBox="0 0 172 172" fill="none" xmlns="http://www.w3.org/2000/svg">
<path d="M164.161 35.9908L164.161 35.9861C164.097 19.6433 145.482 10.2362 132.2 20.0186L132.2 20.0186L132.19 20.0266L88.1527 52.9211L88.1263 52.9408L88.1005 52.9614C86.6448 54.1256 84.5037 54.1559 82.8432 52.9229L82.8417 52.9217L38.6857 20.1969L38.6857 20.1969L38.6769 20.1904C25.5303 10.5584 6.80882 19.9655 6.87076 36.3233C6.87076 36.3241 6.87076 36.3249 6.87077 36.3257L7.02939 137.626C6.94836 147.663 15.2388 155.879 25.2726 155.775C25.276 155.775 25.2794 155.775 25.2827 155.775L146.171 155.54C156.207 155.621 164.423 147.33 164.319 137.297C164.319 137.294 164.319 137.29 164.319 137.287L164.161 35.9908Z" fill="#8964F8" stroke="white" stroke-width="4"/>
<path d="M140.09 142.632L31.4255 142.82C23.7268 142.825 17.4964 136.63 17.4912 128.932L17.3567 81.6824C17.3516 73.9837 23.5461 67.7533 31.2448 67.7481L139.91 67.5608C147.608 67.5557 153.839 73.7501 153.844 81.4489L153.979 128.698C153.972 136.571 147.789 142.627 140.09 142.632Z" fill="black"/>
<path d="M88.1241 130.357C85.4998 130.355 83.805 129.54 83.6309 129.529C82.9459 129.307 82.6564 128.413 82.8776 127.728C83.0988 127.043 83.9932 126.754 84.6781 126.975C85.0147 127.172 91.3296 129.523 96.1072 123.547C96.4908 123.048 97.3734 122.933 97.8724 123.316C98.3714 123.7 98.4868 124.583 98.1032 125.082C94.8601 129.062 91.1202 130.034 88.4842 130.206C88.4724 130.38 88.2982 130.368 88.1241 130.357Z" fill="white"/>
<path d="M54.1145 128.079C42.0968 127.268 32.4556 117.169 32.4079 104.918C32.4828 98.6244 34.7985 92.832 39.1219 88.3998C43.4453 83.9677 49.3811 81.569 55.5123 81.458C61.8059 81.533 67.5982 83.8486 72.0304 88.172C76.4625 92.4954 78.8612 98.4311 78.9722 104.562C78.8972 110.856 76.5816 116.648 72.2582 121.081C67.9348 125.513 61.9991 127.911 55.8679 128.022C55.1712 127.975 54.637 128.114 54.1145 128.079ZM56.6425 90.6324C56.2942 90.6089 55.9458 90.5854 55.5974 90.5619C51.7539 90.4774 48.3272 91.9957 45.5147 94.7802C42.8882 97.4023 41.4221 100.978 41.3376 104.821C41.4273 108.676 42.7714 112.091 45.5559 114.904C48.178 117.53 51.7533 118.996 55.5967 119.081C59.452 118.991 62.867 117.647 65.6794 114.863C68.3059 112.241 69.7721 108.665 69.8566 104.822C69.9411 100.978 68.4228 97.5515 65.6383 94.739C63.3528 92.3102 60.1259 90.8676 56.6425 90.6324Z" fill="white"/>
<path d="M101.747 114.499C99.1345 114.323 96.4184 113.089 93.9939 110.126C91.9061 107.361 91.2587 103.993 92.3765 100.394C94.3673 94.2298 101.595 88.2441 109.993 85.6617C116.241 83.809 122.57 83.3615 128.085 84.6086C133.089 85.6463 137.464 88.2162 140.399 91.3887C143.973 95.4791 145.025 100.624 143.163 104.873C139.662 112.684 132.116 110.425 127.484 109.063C124.222 108.143 120.971 107.049 118.276 108.091C116.836 108.694 115.21 109.459 113.397 110.386C110.469 112.288 106.101 114.793 101.747 114.499ZM122.969 93.0114C120.008 92.8115 116.489 93.0988 112.737 94.2452C106.663 96.1097 102.015 100.17 101.13 102.91C100.897 103.769 101.059 103.955 101.21 104.315C102.173 105.604 102.846 106 109.2 102.58C111.199 101.49 113.197 100.4 115.171 99.6585C120.735 97.5846 125.878 99.1565 130.162 100.496C131.706 100.95 133.935 101.625 134.817 101.51C134.817 101.51 134.829 101.336 135.015 101.173C135.434 100.152 135.005 98.723 133.868 97.4215C131.571 95.1668 127.845 93.3406 122.969 93.0114Z" fill="white"/>
</svg>
